<?xml version="1.0" standalone="no"?>
<!DOCTYPE svg PUBLIC "-//W3C//DTD SVG 1.1//EN" "http://www.w3.org/Graphics/SVG/1.1/DTD/svg11.dtd" >
<svg>
<metadata>
Created by FontForge 20090914 at Tue Apr 21 06:20:26 2015
 By www-data
Copyright (c) Phanlop Thongsuk, 1999-2001. All rights reserved.
</metadata>
<defs>
<font id="KittithadaBold75P" horiz-adv-x="0" >
  <font-face 
    font-family="Kittithada Bold 75 P"
    font-weight="700"
    font-stretch="normal"
    units-per-em="2048"
    panose-1="2 2 6 3 5 4 5 2 3 4"
    ascent="1638"
    descent="-410"
    x-height="698"
    cap-height="965"
    bbox="-952 -647 1556 1599"
    underline-thickness="30"
    underline-position="-76"
    unicode-range="U+000D-U+F71D"
  />
<missing-glyph horiz-adv-x="1599" 
d="M100 0h1399v1599h-1399v-1599zM201 100v1399h1200v-1399h-1200z" />
    <glyph glyph-name=".notdef" horiz-adv-x="1599" 
d="M100 0h1399v1599h-1399v-1599zM201 100v1399h1200v-1399h-1200z" />
    <glyph glyph-name="uni000D" unicode="&#xd;" horiz-adv-x="512" 
 />
    <glyph glyph-name="space" unicode=" " horiz-adv-x="512" 
 />
    <glyph glyph-name="exclam" unicode="!" horiz-adv-x="374" 
d="M82 0v209h213v-209h-213zM88 707v258h201v-258l-53 -418h-97z" />
    <glyph glyph-name="quotedbl" unicode="&#x22;" horiz-adv-x="626" 
d="M115 530v435h145v-435h-145zM367 530v435h143v-435h-143z" />
    <glyph glyph-name="numbersign" unicode="#" horiz-adv-x="751" 
d="M45 268v121h127l25 168h-111v121h127l39 268h131l-39 -268h131l37 268h131l-37 -268h101v-121h-117l-23 -168h99v-121h-117l-37 -268h-131l37 268h-129l-39 -268h-131l39 268h-113zM303 389h133l23 168h-131z" />
    <glyph glyph-name="dollar" unicode="$" horiz-adv-x="751" 
d="M0 313l190 0.00390625c0 -49.333 13.333 -89.333 40 -120s62 -50 106 -58v283l-43 12c-106.667 30 -180.334 67.667 -221.001 113c-32.667 38 -49 89.667 -49 155c0 45.333 7.83301 85.666 23.5 120.999s37.5 65.666 65.5 90.999s61 44.5 99 57.5s79.667 19.5 125 19.5
v105h80v-105c90 -9.33301 160.333 -35.333 211 -78c61.333 -52 92 -121.667 92 -209h-193c0 35.333 -10.5 65.666 -31.5 90.999s-47.167 38 -78.5 38v-239l67 -17c114.667 -32.667 192.667 -82.334 234 -149.001c24.667 -41.333 37 -96 37 -164
c0 -83.333 -37.667 -154.333 -113 -213c-60 -40.667 -135 -61 -225 -61v-115h-80v115c-98 0 -176.167 28 -234.5 84s-92.166 137 -101.499 243zM213 717.004c0 -30 8.83203 -52.667 26.499 -68s49.834 -28.333 96.501 -39v219c-34 0 -63 -9.5 -87 -28.5
s-36 -46.833 -36 -83.5zM415.999 135.004c30 4 62 15.666 96 34.999c32.667 24.667 49 57.334 49 98.001c0 34 -10.5 59.667 -31.5 77s-58.833 34 -113.5 50v-260z" />
    <glyph glyph-name="percent" unicode="%" horiz-adv-x="1351" 
d="M100 698c0 78 19.167 142 57.5 192s96.5 75 174.5 75c79.333 0 137.333 -26.667 174 -80c31.333 -48 47 -112.333 47 -193c0 -78 -17.667 -138.667 -53 -182c-39.333 -48 -98 -72 -176 -72c-79.333 0 -136.5 22.833 -171.5 68.5s-52.5 109.5 -52.5 191.5zM240 694
c0 -35.333 3.33301 -68 10 -98c12 -38 37.333 -57 76 -57c35.333 0 60.333 18.333 75 55c10 18.667 15 52 15 100c0 35.333 -3.33301 70.333 -10 105c-15.333 44 -40 65.667 -74 65c-38 0 -62.833 -17 -74.5 -51s-17.5 -73.667 -17.5 -119zM344 -23l559 1000h115l-557 -1000
h-117zM799 248c0 78 19.333 140.831 58 188.498s95.667 71.5 171 71.5c79.333 0 137.333 -25.333 174 -76c31.333 -43.333 47 -106.666 47 -189.999c0 -75.333 -17.667 -137 -53 -185c-39.333 -45.333 -97.333 -67.666 -174 -66.999c-79.333 0 -136.333 22.5 -171 67.5
s-52 108.5 -52 190.5zM936 245.998c0 -38 3.33301 -72.3311 10 -102.998c13.333 -40.667 39.333 -61 78 -61c27.333 0 48.833 12.667 64.5 38s23.5 66.666 23.5 123.999c0 19.333 -1 37.166 -3 53.499s-4.33301 31.833 -7 46.5c-13.333 42 -38 63.333 -74 64
c-38 0 -64 -19.333 -78 -58c-9.33301 -19.333 -14 -54 -14 -104z" />
    <glyph glyph-name="ampersand" unicode="&#x26;" horiz-adv-x="925" 
d="M43 270c0 61.333 22.001 117.999 66.001 169.999c38 46.667 88.333 83.667 151 111c-15.333 19.333 -28.333 36.833 -39 52.5s-19.334 29.5 -26.001 41.5c-18 34 -27 71 -27 111c0 62.667 25.167 115.167 75.5 157.5s109.166 63.5 176.499 63.5
c78 0 141.5 -20.167 190.5 -60.5s73.5 -97.5 73.5 -171.5c0 -53.333 -15.333 -100 -46 -140s-72.667 -73.667 -126 -101l125 -152c9.33301 18 16.5 35.167 21.5 51.5s9.5 37.5 13.5 63.5h166c-8 -91.333 -39 -170.666 -93 -237.999l195 -229h-233l-80 96
c-75.333 -70.667 -165.666 -106 -270.999 -106c-91.333 0 -166.333 24.167 -225 72.5s-88 117.5 -88 207.5zM225.001 265.999c0 -35.333 13.667 -65.334 41 -90.001s60.333 -37 99 -37c32.667 0 61.5 7.16699 86.5 21.5s49.833 35.833 74.5 64.5l-166 201
c-39.333 -19.333 -70 -39.666 -92 -60.999c-28.667 -31.333 -43 -64.333 -43 -99zM342.001 761.998c0 -24.667 7.66602 -50.666 22.999 -77.999c2.66699 -4 8.33398 -11.5 17.001 -22.5s20.667 -25.5 36 -43.5c27.333 18 50.333 36.667 69 56
c19.333 23.333 29 50.666 29 81.999c0 23.333 -8.83301 44.5 -26.5 63.5s-38.167 28.5 -61.5 28.5s-43.5 -7.83301 -60.5 -23.5s-25.5 -36.5 -25.5 -62.5z" />
    <glyph glyph-name="quotesingle" unicode="'" horiz-adv-x="374" 
d="M117 530v435h143v-435h-143z" />
    <glyph glyph-name="parenleft" unicode="(" horiz-adv-x="399" 
d="M70 362c0 54.667 3.66602 110.336 10.999 167.003s18.5 112 33.5 166s33.833 106 56.5 156s48.334 95.333 77.001 136h162c-49.333 -94 -86.333 -192.833 -111 -296.5s-37 -208.834 -37 -315.501c0 -110.667 11.667 -215.834 35 -315.501s60.333 -198.834 111 -297.501
h-160c-57.333 98 -101.333 196 -132 294s-46 200 -46 306z" />
    <glyph glyph-name="parenright" unicode=")" horiz-adv-x="399" 
d="M-2 -238c44 91.333 78.167 188.001 102.5 290.001s36.5 206.333 36.5 313c0 108 -11.833 214.833 -35.5 320.5s-57.5 206.167 -101.5 301.5h152c57.333 -98 101.333 -197.167 132 -297.5s46 -203.833 46 -310.5c0 -110.667 -15 -220.334 -45 -329.001
s-74.333 -204.667 -133 -288h-154z" />
    <glyph glyph-name="asterisk" unicode="*" horiz-adv-x="550" 
d="M31 752l35 104l153 -59v168h109v-168l155 59l37 -104l-160 -54l101 -131l-90 -67l-99 139l-96 -139l-90 67l100 131z" />
    <glyph glyph-name="plus" unicode="+" horiz-adv-x="811" 
d="M66 268v146h268v268h145v-268h269v-146h-269v-268h-145v268h-268z" />
    <glyph glyph-name="comma" unicode="," horiz-adv-x="374" 
d="M82 0l0.000976562 209h213v-209c0 -57.333 -19.833 -105.5 -59.5 -144.5s-90.167 -63.167 -151.5 -72.5v98c27.333 5.33301 50.166 20 68.499 44s27.5 49 27.5 75h-98z" />
    <glyph glyph-name="hyphen" unicode="-" horiz-adv-x="550" 
d="M72 287v164h407v-164h-407z" />
    <glyph glyph-name="period" unicode="." horiz-adv-x="374" 
d="M82 0v209h211v-209h-211z" />
    <glyph glyph-name="slash" unicode="/" horiz-adv-x="501" 
d="M-6 -14l368 1001h154l-377 -1001h-145z" />
    <glyph glyph-name="zero" unicode="0" horiz-adv-x="751" 
d="M29 477c0 169.333 34 296.333 102 381c58.667 70.667 140 106.334 244 107.001c102.667 0 183.667 -35 243 -105c70 -84.667 105 -212.334 105 -383.001c0 -174.667 -34 -304.334 -102 -389.001c-60 -65.333 -142 -98 -246 -98s-185.333 32.667 -244 98
c-68 84.667 -102 214.334 -102 389.001zM221 477c0 -94 6.33398 -163.667 19.001 -209c22 -86 67 -129 135 -129c66.667 0 111.667 43 135 129c13.333 42.667 20 112.334 20 209.001c0 90 -6 157 -18 201c-24.667 86 -70.334 129 -137.001 129
c-52 0 -90.667 -25.333 -116 -76s-38 -135.334 -38 -254.001z" />
    <glyph glyph-name="one" unicode="1" horiz-adv-x="751" 
d="M100 614v144c78 0 138.333 13 181 39c54.667 31.333 86.667 81 96 149h153v-946h-192v614h-238z" />
    <glyph glyph-name="two" unicode="2" horiz-adv-x="751" 
d="M29 0c0 76.667 17 144.331 51 202.998c35.333 58.667 118 132.334 248 221.001l87 58.5c22.667 15.667 37.334 26.834 44.001 33.501c45.333 40.667 67.666 86.334 66.999 137.001c0 45.333 -13.333 81.333 -40 108s-61 40 -103 40c-52 0 -90 -21.833 -114 -65.5
s-36 -94.834 -36 -153.501h-184c0 57.333 7.5 109.166 22.5 155.499s37.167 86.5 66.5 120.5s65.166 60.333 107.499 79s91.5 28 147.5 28c88.667 0 165.334 -26.667 230.001 -80c62.667 -53.333 94 -125 94 -215c0 -65.333 -16.333 -122.666 -49 -171.999
c-32.667 -44 -72.334 -82.333 -119.001 -115l-86 -57.5l-60 -40.5c-65.333 -49.333 -107.666 -89 -126.999 -119h447v-166h-694z" />
    <glyph glyph-name="three" unicode="3" horiz-adv-x="751" 
d="M25 326l182.002 0.00292969c0 -54.667 14.333 -99.5 43 -134.5s69.667 -52.5 123 -52.5c44 0 80.5 14 109.5 42s43.5 64 43.5 108c0 62.667 -24.333 103.667 -73 123c-35.333 10.667 -84 16 -146 16v135c57.333 0 101.666 6.33301 132.999 19c46.667 18 70 51.333 70 100
c0 38 -13.333 68.333 -40 91s-58.334 34 -95.001 34c-46.667 0 -82.667 -15.333 -108 -46s-38 -71.334 -38 -122.001h-182c0 49.333 7.83301 93.666 23.5 132.999s37.834 73.5 66.501 102.5s63.167 51.333 103.5 67s85.166 23.5 134.499 23.5c82 0 153.667 -22.667 215 -68
c68 -52 102 -117 102 -195c0 -46.667 -11.167 -87.334 -33.5 -122.001s-55.5 -58 -99.5 -70c52 -13.333 93 -39.5 123 -78.5s45 -85.167 45 -138.5c0 -95.333 -34.667 -170.333 -104 -225c-68 -52 -150.667 -78 -248 -78c-106.667 0 -191.667 29 -255 87s-95 141 -95 249z
" />
    <glyph glyph-name="four" unicode="4" horiz-adv-x="751" 
d="M23 219v176l409 551h172v-569h125v-158h-125v-219h-182v219h-399zM172 377h250v330z" />
    <glyph glyph-name="five" unicode="5" horiz-adv-x="751" 
d="M25 281l191.999 0.00195312c4 -42 20.333 -76.167 49 -102.5s63.667 -39.5 105 -39.5c48 0 87.333 18.167 118 54.5s46 79.166 46 128.499c0 50.667 -14.833 93 -44.5 127s-69.5 51 -119.5 51c-58.667 0 -106.667 -25.333 -144 -76h-174l94 522h529v-158h-391l-37 -215
c50.667 46.667 113.334 70 188.001 70c90 0 161 -30 213 -90s78 -137 78 -231c0 -96.667 -34 -177.334 -102 -242.001c-68 -60 -151.333 -90 -250 -90c-98 0 -179.333 21.667 -244 65c-70.667 54.667 -106 130 -106 226z" />
    <glyph glyph-name="six" unicode="6" horiz-adv-x="751" 
d="M29 471c0 130 28.001 241.333 84.001 334c66.667 106.667 162 160 286 160c83.333 0 153 -23 209 -69s89 -110.667 99 -194h-183c-6.66699 34 -21.334 62.333 -44.001 85s-50.334 34 -83.001 34c-61.333 0 -108.333 -34.667 -141 -104
c-26 -50.667 -39 -112.334 -39 -185.001c53.333 68 125 102.333 215 103c87.333 0 159.666 -32 216.999 -96c24.667 -27.333 43.167 -60.166 55.5 -98.499s18.5 -75.833 18.5 -112.5c0 -100 -30.667 -182.667 -92 -248c-62.667 -60 -142.667 -90 -240 -90
c-131.333 0 -227.666 48.333 -288.999 145c-49.333 83.333 -73.666 195.333 -72.999 336zM233.001 315c0 -46.667 14 -87.668 42 -123.001s65.333 -53 112 -53c44 0 78.833 17 104.5 51s38.5 74.333 38.5 121s-11.333 87.667 -34 123c-26 38 -62.333 57.333 -109 58
c-48 0 -85.667 -17.167 -113 -51.5s-41 -76.166 -41 -125.499z" />
    <glyph glyph-name="seven" unicode="7" horiz-adv-x="751" 
d="M53 768v178h645v-166c-94 -82 -170.333 -202 -229 -360c-53.333 -143.333 -80 -283.333 -80 -420h-205c0 126.667 30 262.667 90 408c52 122.667 128 242.667 228 360h-449z" />
    <glyph glyph-name="eight" unicode="8" horiz-adv-x="751" 
d="M18 276c0 61.333 15.5 112.167 46.5 152.5s75.167 67.5 132.5 81.5c-45.333 13.333 -80 37.5 -104 72.5s-36 76.5 -36 124.5c0 79.333 34.333 143.333 103 192c64 44 136.333 66 217 66c104 0 186 -31 246 -93c48 -52 71.667 -105.667 71 -161
c0 -98 -46.333 -165 -139 -201c57.333 -13.333 101.333 -39.833 132 -79.5s46 -90.167 46 -151.5c0 -94 -36.667 -168.667 -110 -224c-68 -44 -149.333 -65.667 -244 -65c-98 0 -180.667 20.333 -248 61c-75.333 53.333 -113 128.333 -113 225zM211 287.001
c0 -48 16.332 -87 48.999 -117s72.334 -45 119.001 -45s85.334 14.667 116.001 44s46 68 46 116c0 44 -15.833 80.167 -47.5 108.5s-69.834 42.5 -114.501 42.5c-48 0 -88 -13.333 -120 -40s-48 -63 -48 -109zM232.999 690.001c0 -39.333 13.6689 -70 41.002 -92
s61.666 -33 102.999 -33c42 0 76 10.667 102 32s39 52.333 39 93c0 45.333 -13 78.5 -39 99.5s-60 31.5 -102 31.5c-40.667 0 -74.834 -11.5 -102.501 -34.5s-41.5 -55.167 -41.5 -96.5z" />
    <glyph glyph-name="nine" unicode="9" horiz-adv-x="751" 
d="M29 618c0 100 30.666 182.831 91.999 248.498s141 98.5 239 98.5c130 0 225.667 -51.333 287 -154c50.667 -83.333 76 -195.333 76 -336c0 -130 -28 -241.333 -84 -334c-68 -101.333 -163.667 -151.666 -287 -150.999c-83.333 0 -153 21.5 -209 64.5
s-88.667 106.167 -98 189.5h182c6.66699 -34 21.334 -62.333 44.001 -85s50.334 -34 83.001 -34c61.333 0 108.666 34.667 141.999 104c26 50.667 39 112.334 39 185.001c-53.333 -68 -125.333 -102.333 -216 -103c-86 0 -159 32.333 -219 97c-22 27.333 -39.333 60 -52 98
s-19 75.333 -19 112zM220.999 634.998c0 -49.333 12.668 -91.667 38.001 -127s60.666 -53 105.999 -53c48 0 85.5 17 112.5 51s40.5 75.667 40.5 125c0 46.667 -14 87.667 -42 123s-65 53 -111 53c-44 0 -79 -17 -105 -51s-39 -74.333 -39 -121z" />
    <glyph glyph-name="colon" unicode=":" horiz-adv-x="374" 
d="M82 0v209h213v-209h-213zM82 479v207h213v-207h-213z" />
    <glyph glyph-name="semicolon" unicode=";" horiz-adv-x="374" 
d="M82 0l0.000976562 209h213v-209c0 -57.333 -19.833 -105.5 -59.5 -144.5s-90.167 -63.167 -151.5 -72.5v98c27.333 5.33301 50.166 20 68.499 44s27.5 49 27.5 75h-98zM82.001 479v207h213v-207h-213z" />
    <glyph glyph-name="less" unicode="&#x3c;" horiz-adv-x="811" 
d="M61 262v160l689 272v-155l-498 -197l498 -197v-147z" />
    <glyph glyph-name="equal" unicode="=" horiz-adv-x="811" 
d="M66 125v143h682v-143h-682zM66 414v145h682v-145h-682z" />
    <glyph glyph-name="greater" unicode="&#x3e;" horiz-adv-x="811" 
d="M61 -2v147l498 197l-498 197v155l689 -272v-160z" />
    <glyph glyph-name="question" unicode="?" horiz-adv-x="751" 
d="M43 653c0 95.333 29.999 175.332 89.999 239.999c58.667 62.667 138 94 238 94c112 0 200 -30 264 -90c49.333 -49.333 74 -106 74 -170c0 -57.333 -11.667 -105.666 -35 -144.999c-9.33301 -13.333 -20.5 -27 -33.5 -41s-28.5 -27.667 -46.5 -41
c-26 -19.333 -45.5 -34.5 -58.5 -45.5s-20.833 -17.833 -23.5 -20.5c-27.333 -27.333 -43.666 -58.666 -48.999 -93.999v-51h-182v61c0 52 12 96.333 36 133c10.667 18 36.667 43.333 78 76l42.5 34c9 7.33301 14.167 11.666 15.5 12.999c28.667 26 43 60.333 43 103
c0 80.667 -38.333 120.667 -115 120c-45.333 0 -79.833 -16.667 -103.5 -50s-35.5 -75.333 -35.5 -126h-199zM259.999 -0.000976562v209h213v-209h-213z" />
    <glyph glyph-name="at" unicode="@" horiz-adv-x="1081" 
d="M49 483c0 143.333 50.0029 262.997 150.003 358.997c101.333 96.667 222.666 145 363.999 145c128.667 0 237.334 -36.667 326.001 -110c95.333 -80 143 -180.667 143 -302c0 -124 -41.667 -223.667 -125 -299c-68 -61.333 -132 -92 -192 -92
c-28.667 0 -52.334 7.16699 -71.001 21.5s-28 32.5 -28 54.5c-35.333 -52 -85 -78 -149 -78c-57.333 0 -107.333 22.667 -150 68c-40.667 46.667 -61 101.334 -61 164.001c0 92.667 27.333 172.334 82 239.001c54.667 69.333 125.667 104.333 213 105
c31.333 0 61.666 -7.5 90.999 -22.5s51.666 -38.833 66.999 -71.5l20 73h113l-86 -350c-2.66699 -13.333 -4.66699 -23 -6 -29l-3.5 -17c-1 -4.66699 -1.5 -8.33398 -1.5 -11.001c0 -20.667 7.66699 -31 23 -31c39.333 0 75.666 24 108.999 72
c34 46.667 51 105.334 51 176.001c0 50.667 -9.33301 96.834 -28 138.501s-44 76.834 -76 105.501s-70.5 50.834 -115.5 66.501s-94.167 23.5 -147.5 23.5c-113.333 0 -206 -38.333 -278 -115c-69.333 -76.667 -104.333 -172.334 -105 -287.001
c0 -118.667 37 -213.334 111 -284.001c76.667 -72.667 173 -109 289 -109c120 0 216.667 37 290 111h113c-46.667 -69.333 -105.5 -121.833 -176.5 -157.5s-149.5 -53.5 -235.5 -53.5c-147.333 0 -270.666 45.667 -369.999 137c-100 95.333 -150 215.333 -150 360z
M393.003 431.997c0 -36.667 9.66797 -66.001 29.001 -88.001s45.333 -33 78 -33c48 0 86.667 21.333 116 64c33.333 42 50 88.333 50 139c0 32.667 -10 60.334 -30 83.001s-45 34 -75 34c-46.667 0 -86.334 -21.333 -119.001 -64c-32.667 -44 -49 -89 -49 -135z" />
    <glyph glyph-name="A" unicode="A" horiz-adv-x="925" 
d="M-2 0l358 965h217l363 -965h-221l-74 215h-360l-76 -215h-207zM336 373h250l-121 354z" />
    <glyph glyph-name="B" unicode="B" horiz-adv-x="952" 
d="M94 0v965h453c102.667 0 177 -17.333 223 -52c57.333 -39.333 86 -102 86 -188c0 -91.333 -43.667 -158.333 -131 -201c57.333 -16.667 101 -46 131 -88s45 -93.667 45 -155c0 -91.333 -34.667 -162.333 -104 -213c-64 -45.333 -142.667 -68 -236 -68h-467zM305 166
h226.999c49.333 0 86.333 8 111 24c31.333 20.667 47 55 47 103c0 46.667 -13.667 81.167 -41 103.5s-64.666 33.5 -111.999 33.5h-232v-264zM304.999 573h215.001c39.333 0 70.666 9.66699 93.999 29s35 48.666 35 87.999c0 40.667 -13.333 69.334 -40 86.001
s-61.667 25 -105 25h-199v-228z" />
    <glyph glyph-name="C" unicode="C" horiz-adv-x="1001" 
d="M51 479c0 146 42.3311 267.668 126.998 365.001c86 95.333 202 143 348 143c109.333 0 202.333 -30.667 279 -92c78 -60 123.667 -144.667 137 -254h-205c-8 49.333 -31.5 89.666 -70.5 120.999s-85.833 47 -140.5 47c-90 0 -157.333 -33.333 -202 -100
c-39.333 -60 -59.333 -136.667 -60 -230c0 -88.667 20 -163 60 -223c46.667 -66.667 114 -100 202 -100c62.667 0 112.834 19 150.501 57s60.5 90.667 68.5 158h205c-10.667 -122.667 -54.167 -217.5 -130.5 -284.5s-174.166 -100.5 -293.499 -100.5
c-146 0 -262 45 -348 135c-84.667 96.667 -127 216 -127 358z" />
    <glyph glyph-name="D" unicode="D" horiz-adv-x="1001" 
d="M94 0l0.000976562 964.999h416c131.333 0 235.666 -39 312.999 -117c83.333 -83.333 125 -203.666 125 -360.999c0 -143.333 -36 -259.333 -108 -348c-78 -92.667 -188 -139 -330 -139h-416zM305.001 177.999h191c68 0 123.333 21.333 166 64c48.667 50 73 125 73 225
c0 104 -19.667 181.667 -59 233c-44 57.333 -117 86 -219 86h-152v-608z" />
    <glyph glyph-name="E" unicode="E" horiz-adv-x="876" 
d="M94 0v965h721v-179h-510v-206h469v-164h-469v-238h520v-178h-731z" />
    <glyph glyph-name="F" unicode="F" horiz-adv-x="800" 
d="M94 0v965h678v-179h-467v-223h404v-164h-404v-399h-211z" />
    <glyph glyph-name="G" unicode="G" horiz-adv-x="1026" 
d="M51 479c0 146 42.332 267.667 126.999 365c86 95.333 202 143 348 143c104 0 195 -30.667 273 -92c78 -60 122.333 -142.667 133 -248h-203c-10.667 52 -34.167 92 -70.5 120s-80.5 42 -132.5 42c-90 0 -157.333 -33.333 -202 -100
c-39.333 -60 -59.333 -136.667 -60 -230c0 -88.667 20 -163 60 -223c46.667 -66.667 114 -100 202 -100c140.667 0 217.334 69.667 230.001 209h-213v157h405v-522h-135l-22 109c-34 -44 -74.333 -75.5 -121 -94.5s-94.667 -28.5 -144 -28.5c-146 0 -262 45 -348 135
c-84.667 96.667 -127 216 -127 358z" />
    <glyph glyph-name="H" unicode="H" horiz-adv-x="1001" 
d="M94 0v965h211v-371h391v371h213v-965h-213v416h-391v-416h-211z" />
    <glyph glyph-name="I" unicode="I" horiz-adv-x="399" 
d="M94 0v965h211v-965h-211z" />
    <glyph glyph-name="J" unicode="J" horiz-adv-x="751" 
d="M18 276v84.001h193v-45c0 -53.333 8.5 -93.166 25.5 -119.499s49.5 -39.5 97.5 -39.5c49.333 0 82 17.667 98 53c9.33301 18 14 52.667 14 104v652h211v-662c0 -88.667 -17 -158.334 -51 -209.001c-51.333 -72 -140.333 -108 -267 -108h-3
c-87.333 0 -160.333 20.333 -219 61c-65.333 53.333 -98.333 129.666 -99 228.999z" />
    <glyph glyph-name="K" unicode="K" horiz-adv-x="976" 
d="M94 0v965h211v-400l377 400h266l-377 -381l412 -584h-266l-289 434l-123 -123v-311h-211z" />
    <glyph glyph-name="L" unicode="L" horiz-adv-x="800" 
d="M94 0v965h211v-787h471v-178h-682z" />
    <glyph glyph-name="M" unicode="M" horiz-adv-x="1226" 
d="M94 0v965h297l227 -664l216 664h299v-965h-199v684l-240 -684h-164l-235 678l-2 -678h-199z" />
    <glyph glyph-name="N" unicode="N" horiz-adv-x="1001" 
d="M94 0v965h209l404 -648l2 648h200v-965h-213l-401 645l-2 -645h-199z" />
    <glyph glyph-name="O" unicode="O" horiz-adv-x="1050" 
d="M51 479c0 146 42.334 267.667 127.001 365c86 95.333 202 143 348 143c147.333 0 262.666 -47.667 345.999 -143c84.667 -97.333 127 -219 127 -365c0 -144.667 -40.667 -262.667 -122 -354c-88.667 -92.667 -205.667 -139 -351 -139c-146 0 -262 45 -348 135
c-84.667 96.667 -127 216 -127 358zM264.001 479c0 -88.667 19.999 -163 59.999 -223c46.667 -66.667 114 -100 202 -100c88.667 0 156.334 33.333 203.001 100c39.333 60 59 134.333 59 223c0 91.333 -19.667 167.333 -59 228c-48 68 -115.667 102 -203 102
c-90 0 -157.333 -33.333 -202 -100c-39.333 -60 -59.333 -136.667 -60 -230z" />
    <glyph glyph-name="P" unicode="P" horiz-adv-x="901" 
d="M94 0v965.001h434c114.667 0 200.667 -31.667 258 -95c50.667 -54.667 76 -126.334 76 -215.001c0 -87.333 -25.333 -158.333 -76 -213c-60 -64 -146 -96 -258 -96h-223v-346h-211zM305 510.001l166 0.000976562c56 0 99 9 129 27c38 21.333 57 60.666 57 117.999
c0 56 -18.333 95.667 -55 119c-26 18 -69.667 27 -131 27h-166v-291z" />
    <glyph glyph-name="Q" unicode="Q" horiz-adv-x="1050" 
d="M51 479c0 146 42.334 267.667 127.001 365c86 95.333 202 143 348 143c147.333 0 262.666 -47.667 345.999 -143c84.667 -97.333 127 -219 127 -365s-41.667 -264.667 -125 -356l121 -109l-98 -96l-137 115c-69.333 -31.333 -147.333 -47 -234 -47
c-146 0 -262 45 -348 135c-84.667 96.667 -127 216 -127 358zM264.001 479c0 -88.667 20.001 -163.001 60.001 -223.001c46.667 -66.667 114 -100 202 -100c15.333 0 31.166 0.333008 47.499 1s28.5 4.33398 36.5 11.001l-90 84l98 104l111 -100
c39.333 52 59 126.333 59 223c0 91.333 -19.667 167.333 -59 228c-48 68 -115.667 102 -203 102c-90 0 -157.333 -33.333 -202 -100c-39.333 -60 -59.333 -136.667 -60 -230z" />
    <glyph glyph-name="R" unicode="R" horiz-adv-x="976" 
d="M94 0l-0.00390625 965.001h520c40.667 0 78.5 -6.83301 113.5 -20.5s65.167 -32.5 90.5 -56.5s44.833 -52.333 58.5 -85s20.5 -67.667 20.5 -105c0 -57.333 -12.667 -106.5 -38 -147.5s-64 -72.167 -116 -93.5c48 -13.333 83.667 -42.666 107 -87.999
c9.33301 -18 16.833 -38.667 22.5 -62s9.83398 -49.333 12.501 -78c0 -54.667 2 -100.334 6 -137.001s15 -67.334 33 -92.001h-211c-9.33301 24.667 -17.666 67 -24.999 127c-2.66699 31.333 -4.66699 55.5 -6 72.5s-2.66602 27.5 -3.99902 31.5
c-6.66699 52 -21.667 89.333 -45 112s-61.666 34 -114.999 34h-213v-377h-211zM304.996 528.001h234c96.667 0.666992 145 46.667 145 138c0 90 -48.333 135 -145 135h-234v-273z" />
    <glyph glyph-name="S" unicode="S" horiz-adv-x="876" 
d="M33 319l205.005 0.000976562c0 -61.333 21 -107 63 -137c39.333 -27.333 89.333 -41 150 -41c44 0 84.667 7.66699 122 23c44 20.667 66 53.334 66 98.001c0 45.333 -29.333 80.333 -88 105c-2.66699 1.33301 -20.834 6.33301 -54.501 15s-81.834 22 -144.501 40
c-44 10.667 -82.333 23.167 -115 37.5s-59.667 29.166 -81 44.499c-60 45.333 -90 109.333 -90 192c0 92.667 38 165.667 114 219c68 48 150 72 246 72c112 0 201.333 -23 268 -69c79.333 -54.667 119 -134.667 119 -240h-207c0 53.333 -17.333 90.833 -52 112.5
s-80.667 32.5 -138 32.5c-39.333 0 -73.5 -8.83301 -102.5 -26.5s-43.5 -45.5 -43.5 -83.5c0 -35.333 15 -60 45 -74c15.333 -6.66699 43.166 -15.834 83.499 -27.501l160.5 -44.5c96.667 -22 167 -54.667 211 -98c49.333 -47.333 74 -108 74 -182
c0 -94 -33.833 -167.667 -101.5 -221s-167.834 -80 -300.501 -80c-114.667 0 -209.334 24.333 -284.001 73c-83.333 61.333 -125 148 -125 260z" />
    <glyph glyph-name="T" unicode="T" horiz-adv-x="825" 
d="M18 786v179h791v-179h-291v-786h-211v786h-289z" />
    <glyph glyph-name="U" unicode="U" horiz-adv-x="1001" 
d="M90 365l-0.000976562 600h211v-600c0 -60 11.667 -108 35 -144c30.667 -43.333 84.334 -65 161.001 -65h3c75.333 0 127.5 16 156.5 48s43.5 85.667 43.5 161v600h211v-600c0 -128.667 -35.5 -224 -106.5 -286s-172.5 -93 -304.5 -93c-136.667 0 -239.167 30 -307.5 90
s-102.5 156.333 -102.5 289z" />
    <glyph glyph-name="V" unicode="V" horiz-adv-x="851" 
d="M-2 965h211l215 -678l219 678h219l-319 -965h-240z" />
    <glyph glyph-name="W" unicode="W" horiz-adv-x="1275" 
d="M4 965h213l152 -658l170 658h198l166 -664l160 664h209l-260 -965h-211l-162 657l-164 -657h-215z" />
    <glyph glyph-name="X" unicode="X" horiz-adv-x="901" 
d="M0 0l330 506l-312 459h246l191 -308l194 308h234l-310 -461l336 -504h-252l-211 334l-215 -334h-231z" />
    <glyph glyph-name="Y" unicode="Y" horiz-adv-x="901" 
d="M-4 965h231l226 -381l225 381h235l-358 -594v-371h-211v375z" />
    <glyph glyph-name="Z" unicode="Z" horiz-adv-x="876" 
d="M31 0v168l518 618h-477v179h759v-168l-518 -619h531v-178h-813z" />
    <glyph glyph-name="bracketleft" unicode="[" horiz-adv-x="450" 
d="M92 -238v1225h357v-149h-164v-924h164v-152h-357z" />
    <glyph glyph-name="backslash" unicode="\" horiz-adv-x="501" 
d="M-6 987h145l377 -1001h-154z" />
    <glyph glyph-name="bracketright" unicode="]" horiz-adv-x="450" 
d="M2 -86h164v924h-164v149h356v-1225h-356v152z" />
    <glyph glyph-name="asciicircum" unicode="^" horiz-adv-x="811" 
d="M82 426l233 520h181l233 -520h-158l-165 371l-166 -371h-158z" />
    <glyph glyph-name="underscore" unicode="_" horiz-adv-x="675" 
d="M0 -92h676v-68h-676v68z" />
    <glyph glyph-name="grave" unicode="`" horiz-adv-x="350" 
d="M-57 977h204l129 -193h-133z" />
    <glyph glyph-name="a" unicode="a" horiz-adv-x="776" 
d="M43 190c0 70.667 24.666 124.001 73.999 160.001c34 26 88.667 43.667 164 53c50.667 6.66699 88.834 11.834 114.501 15.501s39.834 6.16699 42.501 7.5c46.667 12 70 35.333 70 70c0 38 -11 63.167 -33 75.5s-52.667 18.5 -92 18.5c-76.667 0 -119 -35.667 -127 -107
h-190c0 83.333 34.667 145 104 185c57.333 32.667 131.666 49 222.999 49c82 0 150.333 -11.667 205 -35c68 -32.667 102 -87.334 102 -164.001v-362c0 -39.333 1.83301 -71.333 5.5 -96s10.167 -44.667 19.5 -60h-195l-8 32.5c-2.66699 11 -4.66699 22.833 -6 35.5
c-27.333 -28.667 -62.5 -48.834 -105.5 -60.501s-86.167 -17.5 -129.5 -17.5c-68 0 -124 13.667 -168 41c-46.667 36.667 -70 89.667 -70 159zM235.999 199.001c0 -32.667 10.498 -55.834 31.498 -69.501s49.167 -20.5 84.5 -20.5c65.333 0 110.333 21.667 135 65
c14 22 21 54 21 96v72c-15.333 -10.667 -40.666 -19.667 -75.999 -27c-39.333 -5.33301 -71.333 -11.333 -96 -18c-27.333 -4 -49.333 -12.333 -66 -25c-23.333 -19.333 -34.666 -43.666 -33.999 -72.999z" />
    <glyph glyph-name="b" unicode="b" horiz-adv-x="825" 
d="M74 0v965.001h190v-351c24.667 34 56.834 59.667 96.501 77s81.834 26 126.501 26c78 0 143.667 -28.667 197 -86c61.333 -68.667 92 -162.334 92 -281.001c0 -120 -30.667 -213.333 -92 -280c-53.333 -53.333 -119 -80 -197 -80
c-54.667 0 -101.334 7.16699 -140.001 21.5s-68.334 40.5 -89.001 78.5l-2 -90h-182zM258 348.001c0 -61.333 14 -113.833 42 -157.5s68.667 -65.5 122 -65.5c52 0 92.333 21.833 121 65.5s43 96.167 43 157.5c0 65.333 -13.667 119.166 -41 161.499s-68.333 63.5 -123 63.5
s-95.667 -21.167 -123 -63.5s-41 -96.166 -41 -161.499z" />
    <glyph glyph-name="c" unicode="c" horiz-adv-x="776" 
d="M51 340c0 56 8.16699 107.166 24.5 153.499s40 86 71 119s68.333 58.667 112 77s93.5 27.5 149.5 27.5c92.667 0 168.334 -21.333 227.001 -64c68 -48 102 -114.667 102 -200h-188c-12 80 -58.333 120 -139 120h-2c-28.667 0 -53.334 -6 -74.001 -18
s-37.5 -28.667 -50.5 -50s-22.833 -45.666 -29.5 -72.999s-10 -56 -10 -86c0 -60 10.667 -109 32 -147c28.667 -49.333 71 -74 127 -74c42 0 76.167 12.667 102.5 38s42.833 60.333 49.5 105h186c-12 -91.333 -47.667 -160.5 -107 -207.5s-136.333 -70.5 -231 -70.5
c-106.667 0 -192 31 -256 93s-96 147.667 -96 257z" />
    <glyph glyph-name="d" unicode="d" horiz-adv-x="825" 
d="M43 356c0 98 26.001 181.332 78.001 249.999c57.333 74 134.333 111 231 111c91.333 0 161 -34.333 209 -103h2v351h191v-965h-183v90c-23.333 -36.667 -53.333 -62.5 -90 -77.5s-78.334 -22.5 -125.001 -22.5c-100 0 -178.333 35.333 -235 106
c-52 72.667 -78 159.334 -78 260.001zM236.001 349.999c0 -61.333 13.5 -114.166 40.5 -158.499s69.167 -66.5 126.5 -66.5c58.667 0 102.667 23.333 132 70c22.667 39.333 34 91.666 34 156.999c0 62.667 -11.333 114 -34 154c-26.667 44.667 -69.667 67 -129 67h-3
c-58.667 0 -101.167 -20.667 -127.5 -62s-39.5 -95 -39.5 -161z" />
    <glyph glyph-name="e" unicode="e" horiz-adv-x="776" 
d="M39 348c0 108 32.666 196 97.999 264c66.667 69.333 152.667 104.333 258 105c114.667 0 201.334 -41.667 260.001 -125c53.333 -74 80 -170.333 80 -289h-504c0 -118.667 57.333 -178 172 -178c36.667 0 69.5 9.16699 98.5 27.5s46.833 39.833 53.5 64.5h168
c-26 -82 -66.333 -140.333 -121 -175s-123.667 -52 -207 -52c-108 0 -194.333 31.667 -259 95s-97 151 -97 263zM230.999 424h312.001c-16.667 99.333 -66.667 149 -150 149h-2c-54.667 0 -96.334 -17.667 -125.001 -53c-23.333 -31.333 -35 -63.333 -35 -96z" />
    <glyph glyph-name="f" unicode="f" horiz-adv-x="450" 
d="M0 571v127h115v56c0 65.333 19.333 116.833 58 154.5s97 56.5 175 56.5l103 -4v-144l-72 4c-48 0 -72 -26.667 -72 -80v-43h131v-127h-131v-571h-192v571h-115z" />
    <glyph glyph-name="g" unicode="g" horiz-adv-x="825" 
d="M51 371c0 95.333 26.001 176.999 78.001 244.999c53.333 66.667 127.666 100.334 222.999 101.001c48 0 89 -8.5 123 -25.5s62 -45.5 84 -85.5l4 92h182v-653c0 -74 -19.667 -136.667 -59 -188c-58.667 -75.333 -159.667 -113 -303 -113c-83.333 0 -152.333 17 -207 51
c-68 40.667 -102 98 -102 172h190c8 -32.667 25 -56.834 51 -72.501s57 -23.5 93 -23.5c50.667 0 89.167 16 115.5 48s39.5 71.333 39.5 118v92c-22 -35.333 -52 -62.333 -90 -81s-79 -28 -123 -28c-100 0 -174.833 32.833 -224.5 98.5s-74.5 149.834 -74.5 252.501z
M244.001 374.999c0 -60 10.668 -107.335 32.001 -142.002c25.333 -44.667 65.666 -67 120.999 -67h2c52 0 92.333 18.333 121 55s43 82.334 43 137.001c0 60 -11.667 110 -35 150c-28 43.333 -70 65 -126 65h-3c-52 0 -90.833 -18.667 -116.5 -56
s-38.5 -84.666 -38.5 -141.999z" />
    <glyph glyph-name="h" unicode="h" horiz-adv-x="800" 
d="M74 0v965h190v-363c26 36.667 57.833 65 95.5 85s75.5 30 113.5 30c96.667 0 165 -26 205 -78c34 -42 51 -111.667 51 -209v-430h-192v395c0 114.667 -41 172 -123 172c-100 0 -150 -66.667 -150 -200v-367h-190z" />
    <glyph glyph-name="i" unicode="i" horiz-adv-x="348" 
d="M78 0v698h192v-698h-192zM78 807v158h192v-158h-192z" />
    <glyph glyph-name="j" unicode="j" horiz-adv-x="374" 
d="M-18 -74l34 -6c23.333 0 41.5 4.16699 54.5 12.5s19.5 24.833 19.5 49.5v716h193v-725c0 -76.667 -17.5 -131 -52.5 -163s-99.5 -48 -193.5 -48l-55 7v157zM90 807v158h193v-158h-193z" />
    <glyph glyph-name="k" unicode="k" horiz-adv-x="776" 
d="M90 0v965h193v-519l241 252h228l-265 -256l293 -442h-231l-193 311l-73 -71v-240h-193z" />
    <glyph glyph-name="l" unicode="l" horiz-adv-x="348" 
d="M78 0v965h192v-965h-192z" />
    <glyph glyph-name="m" unicode="m" horiz-adv-x="1224" 
d="M78 0l0.00390625 697.999h182v-94c53.333 75.333 125 113 215 113c48 0 89.333 -8.83301 124 -26.5s61.667 -47.167 81 -88.5c23.333 32.667 52.666 60 87.999 82s76.333 33 123 33c79.333 0 140.666 -18.333 183.999 -55c48 -44 72 -109 72 -195v-467h-193v395
c0 36.667 -2.33301 66.334 -7 89.001s-11.834 40.167 -21.501 52.5s-21.667 20.5 -36 24.5s-31.5 6 -51.5 6c-49.333 0 -83.166 -16.333 -101.499 -49s-27.5 -75.667 -27.5 -129v-389h-193v391v31c0 48 -5.33301 81.333 -16 100c-16.667 30 -50.334 45 -101.001 45
c-40.667 0 -72.334 -15.333 -95.001 -46s-34 -69 -34 -115v-406h-192z" />
    <glyph glyph-name="n" unicode="n" horiz-adv-x="800" 
d="M74 0v698h182v-96c24.667 36.667 56.5 65 95.5 85s79.5 30 121.5 30c96.667 0 165 -26 205 -78c34 -42 51 -111.667 51 -209v-430h-192v395c0 114.667 -41 172 -123 172c-100 0 -150 -66.667 -150 -200v-367h-190z" />
    <glyph glyph-name="o" unicode="o" horiz-adv-x="825" 
d="M51 348c0 54.667 8.5 104.834 25.5 150.501s41.333 84.667 73 117s69.667 57.333 114 75s93.833 26.5 148.5 26.5s104.5 -8.83301 149.5 -26.5s83.167 -42.667 114.5 -75s55.5 -71.333 72.5 -117s25.5 -95.834 25.5 -150.501c0 -110.667 -32.667 -198 -98 -262
s-153.333 -96 -264 -96s-198.5 31.667 -263.5 95s-97.5 151 -97.5 263zM244 348c0 -62.667 11.668 -113.668 35.001 -153.001c28.667 -46.667 73 -70 133 -70s104.333 23.333 133 70c24.667 38 37 89 37 153s-11.667 116 -35 156c-28 46 -72 69 -132 69h-3
c-58.667 0 -101.334 -21.167 -128.001 -63.5s-40 -96.166 -40 -161.499z" />
    <glyph glyph-name="p" unicode="p" horiz-adv-x="825" 
d="M74 -238v936h182v-88c22 35.333 51.667 62 89 80s78 27 122 27c105.333 0 185.333 -37.667 240 -113c51.333 -72 77 -159.333 77 -262c0 -104 -25 -187.333 -75 -250c-56 -68 -133.333 -102 -232 -102c-91.333 0 -161 32 -209 96l-4 -324h-190zM258 348
c0 -62.667 13.332 -115.501 39.999 -158.501s69.334 -64.5 128.001 -64.5c57.333 0 100.333 22.667 129 68c24.667 38 37 89.667 37 155c0 62.667 -12.333 114 -37 154c-30.667 47.333 -73.667 71 -129 71h-2c-57.333 0 -99.333 -21.167 -126 -63.5
s-40 -96.166 -40 -161.499z" />
    <glyph glyph-name="q" unicode="q" horiz-adv-x="825" 
d="M43 344c0 105.333 25.332 191.334 75.999 258.001c57.333 76.667 136.333 115 237 115c46.667 0 88.834 -8.5 126.501 -25.5s66.5 -44.167 86.5 -81.5l2 88h183v-936h-191v326c-23.333 -36.667 -55 -62.167 -95 -76.5s-82.667 -21.5 -128 -21.5
c-75.333 0 -141 23.667 -197 71c-66.667 65.333 -100 159.666 -100 282.999zM235.999 348.001c0 -62.667 11.3311 -113.666 33.998 -152.999c28.667 -46.667 72.334 -70 131.001 -70s102.334 22.667 131.001 68c24.667 38 37 89 37 153c0 62.667 -11.333 114 -34 154
c-28 48.667 -70.333 73 -127 73h-2c-57.333 0 -100 -21.833 -128 -65.5s-42 -96.834 -42 -159.501z" />
    <glyph glyph-name="r" unicode="r" horiz-adv-x="526" 
d="M74 0l0.000976562 698h182v-129c18 44 48.167 79.667 90.5 107s87.166 41 134.499 41l41 -6v-179c-16.667 4 -39 6.33301 -67 7c-65.333 0 -113.5 -20.5 -144.5 -61.5s-46.5 -95.167 -46.5 -162.5v-315h-190z" />
    <glyph glyph-name="s" unicode="s" horiz-adv-x="724" 
d="M39 227l181.997 0.000976562c0 -39.333 14.333 -68.833 43 -88.5s63.667 -29.5 105 -29.5c32.667 0 60.667 6 84 18c28.667 16.667 43 40.667 43 72c0 39.333 -73.333 75.333 -220 108c-45.333 9.33301 -82.166 20.166 -110.499 32.499s-50.666 26 -66.999 41
s-27.666 31.833 -33.999 50.5s-9.5 39.667 -9.5 63c0 82 31.667 141.333 95 178c50.667 30 120.667 45 210 45c86 0 154.333 -15 205 -45c61.333 -36.667 95.666 -95.334 102.999 -176.001h-183c0 34 -12.167 58.167 -36.5 72.5s-55.833 21.5 -94.5 21.5
c-30 0 -55.167 -4.5 -75.5 -13.5s-30.5 -26.5 -30.5 -52.5c0 -34 32.667 -60 98 -78c27.333 -6.66699 50.5 -12 69.5 -16s35.5 -7.33301 49.5 -10c69.333 -15.333 120.333 -34.666 153 -57.999c45.333 -31.333 68 -77 68 -137c0 -86 -32.667 -149.333 -98 -190
c-54.667 -30 -127.667 -45 -219 -45c-95.333 0 -170.666 14.333 -225.999 43c-69.333 42 -104 106.667 -104 194z" />
    <glyph glyph-name="t" unicode="t" horiz-adv-x="475" 
d="M8 571l-0.000976562 127h117v211h190v-211h142v-127h-142v-346c0 -32.667 5.5 -54.5 16.5 -65.5s32.833 -16.5 65.5 -16.5l60 7v-150h-113c-65.333 0 -116.666 7.66699 -153.999 23c-44 27.333 -65.667 72.333 -65 135v413h-117z" />
    <glyph glyph-name="u" unicode="u" horiz-adv-x="800" 
d="M74 268l0.00195312 430h190v-395c0 -58.667 9.16699 -101.667 27.5 -129s50.166 -41 95.499 -41c52 0 90 15.667 114 47s36 82 36 152v366h192v-698h-182v98c-26 -38 -58.5 -65.5 -97.5 -82.5s-79.5 -25.5 -121.5 -25.5c-96.667 0 -164.334 23 -203.001 69
c-34 42 -51 111.667 -51 209z" />
    <glyph glyph-name="v" unicode="v" horiz-adv-x="702" 
d="M6 698h203l147 -477l150 477h190l-237 -698h-213z" />
    <glyph glyph-name="w" unicode="w" horiz-adv-x="1099" 
d="M8 698h203l129 -473l119 473h186l119 -473l131 473h197l-220 -698h-198l-123 469l-123 -469h-199z" />
    <glyph glyph-name="x" unicode="x" horiz-adv-x="724" 
d="M0 0l252 369l-229 329h217l125 -182l120 182h213l-231 -327l258 -371h-219l-146 221l-145 -221h-215z" />
    <glyph glyph-name="y" unicode="y" horiz-adv-x="702" 
d="M0 698l197.001 0.00292969l159 -477l154 477h199l-291 -778c-22 -57.333 -51.167 -98 -87.5 -122s-87.833 -36 -154.5 -36l-117 7v157c8 0 18.667 -0.333008 32 -1s25.666 -1.33398 36.999 -2.00098s21.333 -1.33398 30 -2.00098l14 -1
c23.333 1.33301 41.5 10.5 54.5 27.5s19.5 34.5 19.5 52.5c0 19.333 -2.66699 33.666 -8 42.999z" />
    <glyph glyph-name="z" unicode="z" horiz-adv-x="702" 
d="M31 0v145l362 410h-336v143h588v-143l-362 -410h389v-145h-641z" />
    <glyph glyph-name="braceleft" unicode="{" horiz-adv-x="450" 
d="M-4 311l0.00292969 119.002c34 0 63.333 13.667 88 41c19.333 23.333 29 50 29 80v254c0 56 19.667 101.667 59 137c30 30 65.667 45 107 45h172v-149h-74c-23.333 0 -41.5 -7.16699 -54.5 -21.5s-19.5 -40.833 -19.5 -79.5v-205c0 -58.667 -17 -100.667 -51 -126
c-20.667 -16.667 -48 -27.667 -82 -33c34 -6.66699 61.333 -18.334 82 -35.001c34 -26 51 -65 51 -117v-217c0 -5.33301 0.333008 -11.833 1 -19.5s1.66699 -14.834 3 -21.501c9.33301 -32.667 32.666 -49 69.999 -49h74v-152h-172c-35.333 0 -70.333 15 -105 45
c-40.667 36.667 -61 82.667 -61 138v256c0 18 -3.83301 34 -11.5 48s-17.334 25.5 -29.001 34.5s-24.334 15.833 -38.001 20.5s-26.5 7 -38.5 7z" />
    <glyph glyph-name="bar" unicode="|" horiz-adv-x="301" 
d="M78 -14v1001h145v-1001h-145z" />
    <glyph glyph-name="braceright" unicode="}" horiz-adv-x="450" 
d="M0 -86h73.999c28.667 0 47.667 8.83301 57 26.5s14 38.834 14 63.501v217c0 50.667 17.333 89 52 115c26 20.667 54 31.667 84 33c-49.333 12 -84.333 30.667 -105 56s-31 61 -31 107v205c0 20.667 -3.33301 42.667 -10 66c-12 23.333 -32.333 35 -61 35h-74v149h172
c35.333 0 70 -15 104 -45c40.667 -36.667 61.334 -82.334 62.001 -137.001v-254c0 -40.667 15 -72 45 -94c22 -18 48.667 -27 80 -27v-119c-28.667 0 -56.667 -9.16699 -84 -27.5s-41 -45.833 -41 -82.5v-256c0 -56 -19.667 -102 -59 -138c-30 -30 -65.667 -45 -107 -45
h-172v152z" />
    <glyph glyph-name="asciitilde" unicode="~" horiz-adv-x="811" 
d="M90 344c19.333 34 40.001 60 62.001 78c30 24.667 66 37 108 37c24.667 0 54.667 -6.33301 90 -19c10.667 -2.66699 24.667 -7.66699 42 -15l54.5 -23.5c19 -8.33301 37.333 -15.833 55 -22.5s32.834 -10 45.501 -10c22 0 44.333 10 67 30
c6.66699 6.66699 14.5 15.5 23.5 26.5s18.5 24.167 28.5 39.5l55 -125c-27.333 -39.333 -50 -66 -68 -80c-31.333 -24.667 -65.333 -37 -102 -37c-28.667 0 -57.334 6.33301 -86.001 19c-8 2.66699 -24.667 11.5 -50 26.5s-51 26.5 -77 34.5c-23.333 8 -50 12 -80 12
c-27.333 0 -49.833 -9.5 -67.5 -28.5s-32.834 -42.167 -45.501 -69.5z" />
    <glyph glyph-name="uni00A0" unicode="&#xa0;" horiz-adv-x="512" 
 />
    <glyph glyph-name="currency" unicode="&#xa4;" horiz-adv-x="839" 
d="M8 164l76.001 -75.999l145 148c54.667 -40.667 119 -61.334 193 -62.001c35.333 0 70.5 6.16699 105.5 18.5s62.5 26.833 82.5 43.5l150 -148l71 76l-145 145c39.333 52 59 116.333 59 193c0 74 -19.667 136.667 -59 188l145 150l-71 71l-150 -145
c-22 18 -49.667 32.333 -83 43s-68.333 16 -105 16c-76.667 0 -141 -19.667 -193 -59l-145 145l-76 -71l148 -150c-40.667 -49.333 -61.334 -112 -62.001 -188c0 -74 20.667 -138.333 62 -193zM197.001 502.001c0 58.667 21.665 111.999 64.998 159.999
c42.667 44.667 96 67 160 67c32.667 0 62.334 -6.16699 89.001 -18.5s49.834 -28.666 69.501 -48.999s35 -44.5 46 -72.5s16.5 -57 16.5 -87c0 -66.667 -21 -121.334 -63 -164.001c-44 -45.333 -96.667 -68 -158 -68c-65.333 0 -119.333 22.667 -162 68
c-42 46.667 -63 101.334 -63 164.001z" />
    <glyph glyph-name="copyright" unicode="&#xa9;" horiz-adv-x="1081" 
d="M23 483c0 148.667 50.333 269.667 151 363c102.667 94 225 141 367 141c143.333 0 264 -45 362 -135c104 -96 156 -219 156 -369s-52 -272.667 -156 -368c-101.333 -86 -222 -129 -362 -129c-142 0 -263 43 -363 129c-104 95.333 -155.667 218 -155 368zM160 483
c0 -113.333 35.999 -208 107.999 -284c74 -75.333 165 -113 273 -113c106.667 0 196.834 37.5 270.501 112.5s110.5 169.833 110.5 284.5c0 113.333 -37 208.333 -111 285c-74 75.333 -164 113 -270 113c-108 0 -199 -38.333 -273 -115
c-72.667 -76.667 -108.667 -171 -108 -283zM267.999 485c0 90 25.6641 163.002 76.9971 219.002s122 84 212 84c65.333 0 119.833 -18.333 163.5 -55s70.5 -88.334 80.5 -155.001h-105c-6.66699 31.333 -22.667 56.166 -48 74.499s-55.666 27.5 -90.999 27.5
c-50.667 0 -89.667 -17.833 -117 -53.5s-41 -82.167 -41 -139.5c0 -54.667 14.667 -100.667 44 -138s68 -56 116 -56c82 0 127.667 35.333 137 106h109c-9.33301 -66.667 -37 -119.167 -83 -157.5s-100.333 -57.5 -163 -57.5c-44 0 -83.667 7.5 -119 22.5
s-65.666 35.833 -90.999 62.5s-45.166 58.5 -59.499 95.5s-21.5 77.167 -21.5 120.5z" />
    <glyph glyph-name="guillemotleft" unicode="&#xab;" horiz-adv-x="600" 
d="M57 276v183l211 168v-164l-121 -94l121 -99v-161zM332 276v183l211 168v-164l-121 -94l121 -99v-161z" />
    <glyph glyph-name="logicalnot" unicode="&#xac;" horiz-adv-x="811" 
d="M78 317h571v-186h84v268h-655v-82z" />
    <glyph glyph-name="minus" unicode="&#xad;" horiz-adv-x="811" 
d="M78 328h655v61h-655v-61z" />
    <glyph glyph-name="registered" unicode="&#xae;" horiz-adv-x="1081" 
d="M23 483c0 148.667 50.333 269.667 151 363c102.667 94 225 141 367 141c143.333 0 264 -45 362 -135c104 -96 156 -219 156 -369s-52 -272.667 -156 -368c-101.333 -86 -222 -129 -362 -129c-142 0 -263 43 -363 129c-104 95.333 -155.667 218 -155 368zM160 483
c0 -113.333 35.999 -208 107.999 -284c74 -75.333 165 -113 273 -113c106.667 0 196.834 37.5 270.501 112.5s110.5 169.833 110.5 284.5c0 113.333 -37 208.333 -111 285c-74 75.333 -164 113 -270 113c-108 0 -199 -38.333 -273 -115
c-72.667 -76.667 -108.667 -171 -108 -283zM339.999 201l-0.000976562 566.999h213c74 0 129.333 -12.667 166 -38s55 -68.666 55 -129.999c0 -49.333 -13.667 -86.833 -41 -112.5s-62.666 -38.5 -105.999 -38.5l149 -248h-117l-137 241h-71v-241h-111zM450.998 529.999h100
c38 0 64.667 4.33301 80 13c20.667 12 31 34.333 31 67c0 27.333 -10.667 45.833 -32 55.5s-49 14.5 -83 14.5h-96v-150z" />
    <glyph glyph-name="degree" unicode="&#xb0;" horiz-adv-x="540" 
d="M66 713c0 27.333 5 53.166 15 77.499s24.333 45.833 43 64.5s39.834 33.334 63.501 44.001s49.834 16 78.501 16s55.334 -5 80.001 -15s46.167 -24.333 64.5 -43s33 -40.167 44 -64.5s16.5 -50.833 16.5 -79.5s-5.5 -55.334 -16.5 -80.001s-25.667 -46.167 -44 -64.5
s-39.833 -32.666 -64.5 -42.999s-51.334 -15.5 -80.001 -15.5c-27.333 0 -52.833 5.16699 -76.5 15.5s-44.834 24.666 -63.501 42.999s-33.334 39.833 -44.001 64.5s-16 51.334 -16 80.001zM121 713c0 -39.333 14.334 -73.833 43.001 -103.5s62.667 -44.5 102 -44.5
c40.667 0 75.667 14.333 105 43c30 30 45 65 45 105c0 39.333 -14.833 73.333 -44.5 102s-64.834 43 -105.501 43s-75 -14 -103 -42s-42 -62.333 -42 -103z" />
    <glyph glyph-name="paragraph" unicode="&#xb6;" horiz-adv-x="727" 
d="M0 858c0 102.667 31.333 179.001 94 229.001c60 44 142.667 66 248 66h389v-41h-102v-1358h-62v1358h-145v-1358h-55v807c-112 0 -199.667 20.667 -263 62c-69.333 49.333 -104 127.666 -104 234.999z" />
    <glyph glyph-name="periodcentered" unicode="&#xb7;" horiz-adv-x="337" 
d="M96 449c0 20.667 6.83105 37.667 20.498 51s31.5 20 53.5 20c20.667 0 37.834 -7.16699 51.501 -21.5s20.5 -30.833 20.5 -49.5c0 -20.667 -7.16699 -38.167 -21.5 -52.5s-31.166 -21.5 -50.499 -21.5c-22 0 -39.833 6.83301 -53.5 20.5s-20.5 31.5 -20.5 53.5z" />
    <glyph glyph-name="guillemotright" unicode="&#xbb;" horiz-adv-x="600" 
d="M57 109v161l121 99l-121 94v164l211 -168v-183zM332 109v161l121 99l-121 94v164l211 -168v-183z" />
    <glyph glyph-name="multiply" unicode="&#xd7;" horiz-adv-x="811" 
d="M86 125l217 217l-213 217l103 103l215 -218l215 218l102 -103l-217 -217l217 -217l-102 -102l-215 217l-220 -217z" />
    <glyph glyph-name="divide" unicode="&#xf7;" horiz-adv-x="811" 
d="M66 268v146h682v-146h-682zM293 61c0 31.333 10.833 58 32.5 80s49.167 33 82.5 33c30 0 56.167 -11.333 78.5 -34s33.5 -49 33.5 -79c0 -28.667 -11.167 -53.5 -33.5 -74.5s-48.5 -31.5 -78.5 -31.5c-32.667 0 -60 9.5 -82 28.5s-33 44.833 -33 77.5zM293 623
c0 32.667 10.833 59.832 32.5 81.499s49.167 32.5 82.5 32.5c30 0 56.167 -11.167 78.5 -33.5s33.5 -49.166 33.5 -80.499c0 -28.667 -11.167 -55 -33.5 -79s-48.5 -36 -78.5 -36c-32.667 0 -60 10.833 -82 32.5s-33 49.167 -33 82.5z" />
    <glyph glyph-name="0e00;" unicode="&#xe00;" horiz-adv-x="204" 
 />
    <glyph glyph-name="afii59681" unicode="&#xe01;" horiz-adv-x="872" 
d="M82 0l-0.00195312 666c83.333 112 201.333 168 354 168c50.667 0 97.834 -6.16699 141.501 -18.5s81.167 -30.5 112.5 -54.5s56 -53.833 74 -89.5s27 -76.5 27 -122.5v-549h-201v535c0 39.333 -14.667 71 -44 95s-68 36 -116 36c-30 0 -58.667 -5.5 -86 -16.5
s-47.666 -25.5 -60.999 -43.5v-606h-201z" />
    <glyph glyph-name="afii59682;" unicode="&#xe02;" horiz-adv-x="804" 
d="M41 324c0 57.333 15.668 109.167 47.001 155.5s70.333 81.166 117 104.499l-117 135l166 115l190 -246c-66.667 -31.333 -117.667 -68.833 -153 -112.5s-53 -94.167 -53 -151.5c0 -45.333 14 -85 42 -119s66.333 -51 115 -51c36.667 0 67 11.833 91 35.5
s36 51.834 36 84.501v545h201v-536c0 -87.333 -30.667 -158.333 -92 -213c-58.667 -50.667 -137.334 -76 -236.001 -76c-101.333 0 -185.333 29.333 -252 88c-68 64 -102 144.667 -102 242z" />
    <glyph glyph-name="afii59683;" unicode="&#xe03;" horiz-adv-x="815" 
d="M0 707l100 122.001c15.333 -8 27.5 -15.333 36.5 -22s18.833 -17.667 29.5 -33l57 45h180v-258c-104 -62.667 -155.667 -141.667 -155 -237c0 -45.333 14 -85 42 -119s66.667 -51 116 -51c36.667 0 66.834 11.833 90.501 35.5s35.5 51.834 35.5 84.501v545h201v-536
c0 -87.333 -30.667 -158.333 -92 -213c-58.667 -50.667 -137 -76 -235 -76c-101.333 0 -185.333 29.333 -252 88c-68 64 -102.333 144.667 -103 242c0 57.333 15.667 109.166 47 155.499s70.333 81.166 117 104.499v80l-74 -54c-6.66699 8 -13.334 15.167 -20.001 21.5
s-13 11.5 -19 15.5c-34 28.667 -68 48.667 -102 60z" />
    <glyph glyph-name="afii59684;" unicode="&#xe04;" horiz-adv-x="892" 
d="M82 0v539c0 84.667 34 155 102 211c72.667 56 160 84 262 84c105.333 0 192.333 -28 261 -84c69.333 -56 104 -126.333 104 -211v-539h-201v551c0 35.333 -14.667 63.333 -44 84s-69.333 31 -120 31c-49.333 0 -88.833 -10.333 -118.5 -31s-44.5 -48.667 -44.5 -84v-68
h225v-164h-225v-319h-201z" />
    <glyph glyph-name="afii59685;" unicode="&#xe05;" horiz-adv-x="917" 
d="M82 0l-0.000976562 548.998c0 74 21.667 136.667 65 188c49.333 56 119 88.333 209 97l103 -84l104 84c86 -8 153 -38.667 201 -92s72 -117.666 72 -192.999v-549h-201v553c0 50.667 -22.667 83.334 -68 98.001l-102 -94l-115 94
c-45.333 -15.333 -67.666 -48 -66.999 -98v-70h249v-164h-249v-319h-201z" />
    <glyph glyph-name="afii59686;" unicode="&#xe06;" horiz-adv-x="884" 
d="M0 707l96 121.998c15.333 -8 27.333 -15.333 36 -22s18.667 -17.667 30 -33l57 45h187v-215c0 -28.667 -19.333 -58 -58 -88c-36.667 -28.667 -55 -54.667 -55 -78v-147c0 -19.333 5.16699 -37.5 15.5 -54.5s23.666 -32 39.999 -45s35 -23.167 56 -30.5
s41.833 -11 62.5 -11c40.667 0 73.334 10.833 98.001 32.5s37 50.167 37 85.5v551h201v-575c0 -80.667 -26.667 -143.667 -80 -189c-52 -40.667 -112 -61 -180 -61c-57.333 0 -106.833 9.83301 -148.5 29.5s-75.5 45.834 -101.5 78.501v-102h-201v449
c0 30 19.833 59.333 59.5 88s59.5 54.334 59.5 77.001v50l-74 -54c-6.66699 8 -13.5 15.167 -20.5 21.5s-13.167 11.5 -18.5 15.5c-34 28.667 -66.667 48.667 -98 60z" />
    <glyph glyph-name="afii59687;" unicode="&#xe07;" horiz-adv-x="811" 
d="M0 819h193l149 -647c74 0 130 20.833 168 62.5s57 97.167 57 166.5c0 79.333 -18.333 137.333 -55 174c-42 42 -114.333 63.333 -217 64v182c166.667 0 289 -36.667 367 -110c72 -68.667 108 -172 108 -310c0 -128.667 -41.667 -228 -125 -298s-199.333 -105 -348 -105
c-30 0 -53.833 0.333008 -71.5 1s-31.5 1 -41.5 1z" />
    <glyph glyph-name="afii59688;" unicode="&#xe08;" horiz-adv-x="827" 
d="M0 674c57.333 58.667 115.331 100.001 173.998 124.001s129 36 211 36c118.667 0 215 -38.333 289 -115c74.667 -75.333 112 -173 112 -293c0 -132.667 -45 -236.834 -135 -312.501s-223 -113.5 -399 -113.5l-74 340h-90v164h254l68 -332
c24.667 5.33301 47.834 15.833 69.501 31.5s40.667 35.167 57 58.5s29 49 38 77s13.5 57 13.5 87c0 65.333 -20.667 120 -62 164c-45.333 48 -104.666 72 -177.999 72c-52 0 -97 -10.333 -135 -31s-70.667 -48 -98 -82z" />
    <glyph glyph-name="afii59689;" unicode="&#xe09;" horiz-adv-x="841" 
d="M29 305l0.00195312 163.998h258v-209c0 -70.667 35.333 -106 106 -106c22 0 43.5 4 64.5 12s39.167 18.833 54.5 32.5s27.666 29 36.999 46s14 34.5 14 52.5v225c0 40.667 -14.333 74.834 -43 102.501s-66.667 41.5 -114 41.5c-38 0 -72.5 -9.66699 -103.5 -29
s-52.5 -48.666 -64.5 -87.999h-189c15.333 92.667 59.666 165 132.999 217c65.333 45.333 142.666 68 231.999 68c95.333 0 177 -26 245 -78c66.667 -50.667 100.334 -119 101.001 -205v-469l28 -82h-225v102c-18 -26 -41.667 -49.667 -71 -71c-48 -24.667 -98 -37 -150 -37
c-68 0 -125.333 16.333 -172 49c-52 44 -78 109 -78 195v67h-63z" />
    <glyph glyph-name="afii59690;" unicode="&#xe0a;" horiz-adv-x="808" 
d="M82 45l0.000976562 773.999h201v-655c13.333 -4 28.5 -6.66699 45.5 -8s32.5 -2 46.5 -2c57.333 0 103.333 17.333 138 52s52 77.334 52 128.001c0 62.667 -15.667 113.667 -47 153c-40.667 52 -107 87 -199 105l248 237l187 -75l-156 -140c112 -62 168 -158 168 -288
c0 -98 -34.167 -177.5 -102.5 -238.5s-164.5 -91.5 -288.5 -91.5c-66.667 0 -134.334 6.66699 -203.001 20c-10.667 2.66699 -23.5 6.5 -38.5 11.5z" />
    <glyph glyph-name="afii59691;" unicode="&#xe0b;" horiz-adv-x="837" 
d="M-14 707l94.001 121.999c15.333 -8 27.333 -15.333 36 -22s18.334 -17.667 29.001 -33l58 45h180v-203c0 -26 -15.667 -60.667 -47 -104c-15.333 -19.333 -23 -40.333 -23 -63v-285c13.333 -4 28.666 -6.66699 45.999 -8s33 -2 47 -2c57.333 0 103.333 17.333 138 52
s52 77.334 52 128.001c0 60 -13 109 -39 147c-32.667 46.667 -88 83.667 -166 111l205 237l188 -75l-145 -148c105.333 -61.333 158 -154.666 158 -279.999c0 -100 -34.167 -180 -102.5 -240s-164.5 -90 -288.5 -90c-66.667 0 -134.334 6.66699 -203.001 20
c-10.667 2.66699 -23.667 6.5 -39 11.5l-51 17.5v408c0 26 17.667 58.667 53 98c19.333 23.333 29 44.333 29 63v50l-74 -54c-6.66699 8 -13.5 15.167 -20.5 21.5s-13.167 11.5 -18.5 15.5c-19.333 15.333 -36.833 27.666 -52.5 36.999s-30.167 17 -43.5 23z" />
    <glyph glyph-name="afii59692;" unicode="&#xe0c;" horiz-adv-x="1361" 
d="M82 0l-0.00195312 666c83.333 112 201.333 168 354 168c50.667 0 97.834 -6.16699 141.501 -18.5s81.167 -30.5 112.5 -54.5s56 -53.833 74 -89.5s27 -76.5 27 -122.5v-244c0 -23.333 4.66699 -44.5 14 -63.5s21.833 -35.333 37.5 -49s33.5 -24.167 53.5 -31.5
s40 -11 60 -11c82 0 123 40 123 120v549h201v-577c0 -82 -22.5 -143.833 -67.5 -185.5s-102.5 -62.5 -172.5 -62.5c-106.667 0 -189.667 36 -249 108v-102h-201v535c0 39.333 -14.667 71 -44 95s-68 36 -116 36c-30 0 -58.667 -5.5 -86 -16.5s-47.666 -25.5 -60.999 -43.5
v-442h127v-164h-328z" />
    <glyph glyph-name="afii59693;" unicode="&#xe0d;" horiz-adv-x="1363" 
d="M82 0l-0.00292969 666c83.333 112 201.333 168 354 168c50.667 0 97.834 -6.16699 141.501 -18.5s81.167 -30.5 112.5 -54.5s56 -53.833 74 -89.5s27 -76.5 27 -122.5v-57c0 -39.333 12.833 -67.666 38.5 -84.999s62.5 -26 110.5 -26c42 0 76 10.167 102 30.5
s39 49.166 39 86.499v321h201v-530c0 -45.333 -8.5 -86 -25.5 -122s-41.5 -67 -73.5 -93s-70.333 -46.167 -115 -60.5s-93.334 -21.5 -146.001 -21.5c-124 0 -236 21.667 -336 65l82 154c68 -44 139.667 -66 215 -66c121.333 0 187.333 44.667 198 134
c-19.333 -15.333 -44.666 -28.833 -75.999 -40.5s-68.666 -17.5 -111.999 -17.5c-202 0 -303 85.333 -303 256v58c0 39.333 -14.667 71 -44 95s-68 36 -116 36c-30 0 -58.667 -5.5 -86 -16.5s-47.666 -25.5 -60.999 -43.5v-442h127v-164h-328z" />
    <glyph glyph-name="afii59694;" unicode="&#xe0e;" horiz-adv-x="892" 
d="M20 0l-0.000976562 164h82v502c83.333 112 201.666 168 354.999 168c50.667 0 97.834 -6.16699 141.501 -18.5s81.167 -30.5 112.5 -54.5s55.833 -53.833 73.5 -89.5s26.5 -76.5 26.5 -122.5v-848h-184l-138 111l-143 -111h-326v164h283l193 129l114 -88v629
c0 39.333 -14.667 71 -44 95s-67.666 36 -114.999 36c-30 0 -58.667 -5.5 -86 -16.5s-48 -25.5 -62 -43.5v-606h-283z" />
    <glyph glyph-name="afii59695;" unicode="&#xe0f;" horiz-adv-x="892" 
d="M20 0l-0.000976562 164h82v502c83.333 112 201.666 168 354.999 168c50.667 0 97.834 -6.16699 141.501 -18.5s81.167 -30.5 112.5 -54.5s55.833 -53.833 73.5 -89.5s26.5 -76.5 26.5 -122.5v-848h-193l-79 74l-103 -107l-102 107l-78 -74h-236v164h199l127 106l90 -98
l90 98l84 -71v635c0 39.333 -14.667 71 -44 95s-67.666 36 -114.999 36c-30 0 -58.667 -5.5 -86 -16.5s-48 -25.5 -62 -43.5v-606h-283z" />
    <glyph glyph-name="afii59696;" unicode="&#xe10;" horiz-adv-x="833" 
d="M0 674c57.333 58.667 115.331 100.001 173.998 124.001s129 36 211 36c69.333 0 125.333 -11 168 -33l63 90l191 -74l-105 -129c56 -76.667 84 -164 84 -262c0 -132.667 -45 -236.834 -135 -312.501s-223 -113.5 -399 -113.5l-74 340h-90v164h254l68 -332
c24.667 5.33301 47.834 15.833 69.501 31.5s40.667 35.167 57 58.5s29 49 38 77s13.5 57 13.5 87c0 65.333 -20.667 120 -62 164c-45.333 48 -104.666 72 -177.999 72c-52 0 -97 -10.333 -135 -31s-70.667 -48 -98 -82zM26.998 -134.999h206l105 84l90 -86l90 88l74 -64v80
l-31 49h230v-315h-197l-72 68l-92 -99l-102 101l-74 -70h-227v164z" />
    <glyph glyph-name="afii59697;" unicode="&#xe11;" horiz-adv-x="921" 
d="M-6 707l94 121.999c15.333 -8 27.333 -15.333 36 -22s18.667 -17.667 30 -33l57 45h180v-203c0 -31.333 -13.667 -62.666 -41 -93.999c-26 -26 -39 -50.333 -39 -73v-50c0 -23.333 -1 -48.166 -3 -74.499s-4.33301 -47.166 -7 -62.499
c5.33301 16.667 10.5 31.167 15.5 43.5s8.83301 23.166 11.5 32.499l28.5 68.5l28.5 64.5l170 352c98 0 170 -17.333 216 -52s69 -97 69 -187v-584h-201v586c0 26 -4.66699 39 -14 39l-293 -625h-219v453c0 30 15 57.833 45 83.5s45 51.5 45 77.5v50l-74 -54
c-6.66699 8 -13.5 15.167 -20.5 21.5s-13.167 11.5 -18.5 15.5c-19.333 15.333 -36.833 27.666 -52.5 36.999s-30.167 17 -43.5 23z" />
    <glyph glyph-name="afii59698;" unicode="&#xe12;" horiz-adv-x="1404" 
d="M41 393c0 106.667 30.667 200.334 92 281.001c62.667 82 139 133.667 229 155l105 -84l86 76c91.333 0 161.666 -27.333 210.999 -82c45.333 -52 67.666 -118 66.999 -198v-236c0 -23.333 4.83301 -44.5 14.5 -63.5s22.334 -35.333 38.001 -49s33.5 -24.167 53.5 -31.5
s40 -11 60 -11c82 0 123 40 123 120v549h201v-577c0 -82 -22.5 -143.833 -67.5 -185.5s-102.5 -62.5 -172.5 -62.5c-106.667 0 -190 36 -250 108v-102h-200v555c0 45.333 -17 72.666 -51 81.999l-107 -100l-119 98c-28.667 -24.667 -52.334 -54.667 -71.001 -90
c-26 -46.667 -39 -97.334 -39 -152.001c0 -65.333 10.833 -118.166 32.5 -158.499s54.5 -60.5 98.5 -60.5c32.667 0 64 15 94 45l115 -133c-31.333 -35.333 -65.166 -58.833 -101.499 -70.5s-74.166 -17.5 -113.499 -17.5c-102.667 0 -183 34.833 -241 104.5
s-87 166.5 -87 290.5z" />
    <glyph glyph-name="afii59699;" unicode="&#xe13;" horiz-adv-x="1361" 
d="M82 0l-0.00195312 666c83.333 112 201.333 168 354 168c50.667 0 97.834 -6.16699 141.501 -18.5s81.167 -30.5 112.5 -54.5s56 -53.833 74 -89.5s27 -76.5 27 -122.5v-279c0 -39.333 10.833 -69.166 32.5 -89.499s51.5 -30.5 89.5 -30.5c44 0 81 12.667 111 38
c36.667 30 55 69 55 117v514h201v-819h-201v102c-27.333 -32.667 -62.833 -58.834 -106.5 -78.501s-91.5 -29.5 -143.5 -29.5c-69.333 0 -125 18.333 -167 55c-48 48 -72 112.333 -72 193v293c0 39.333 -14.667 71 -44 95s-68 36 -116 36c-30 0 -58.667 -5.5 -86 -16.5
s-47.666 -25.5 -60.999 -43.5v-442h127v-164h-328z" />
    <glyph glyph-name="afii59700;" unicode="&#xe14;" horiz-adv-x="899" 
d="M41 393c0 120 41.002 223.001 123.002 309.001c82 87.333 182.333 131.333 301 132c90 0 166.333 -19.333 229 -58c53.333 -32.667 94.333 -74.334 123 -125.001v-651h-201v602c-8 13.333 -25.333 25.833 -52 37.5s-57 17.5 -91 17.5
c-66.667 0 -121.334 -27.333 -164.001 -82c-44 -56 -65.667 -116.667 -65 -182c0 -65.333 11.5 -118.166 34.5 -158.499s57.833 -60.5 104.5 -60.5c35.333 0 68.666 13.667 99.999 41l107 -139c-30 -28.667 -60 -48.834 -90 -60.501s-70.333 -17.5 -121 -17.5
c-110.667 0 -194.667 33.833 -252 101.5s-86 165.5 -86 293.5z" />
    <glyph glyph-name="afii59701;" unicode="&#xe15;" horiz-adv-x="913" 
d="M41 393c0 106.667 30.668 200.334 92.001 281.001c62.667 82 139 133.667 229 155l105 -84l86 76c91.333 0 161.666 -27.333 210.999 -82c45.333 -52 67.666 -118 66.999 -198v-541h-200v555c0 45.333 -17 72.666 -51 81.999l-107 -100l-119 98
c-28.667 -24.667 -52.334 -54.667 -71.001 -90c-26 -46.667 -39 -97.334 -39 -152.001c0 -65.333 10.833 -118.166 32.5 -158.499s54.5 -60.5 98.5 -60.5c32.667 0 64 15 94 45l115 -133c-31.333 -35.333 -65.166 -58.833 -101.499 -70.5s-74.166 -17.5 -113.499 -17.5
c-102.667 0 -183 34.833 -241 104.5s-87 166.5 -87 290.5z" />
    <glyph glyph-name="afii59702;" unicode="&#xe16;" horiz-adv-x="872" 
d="M82 0l-0.00195312 666c83.333 112 201.333 168 354 168c50.667 0 97.834 -6.16699 141.501 -18.5s81.167 -30.5 112.5 -54.5s56 -53.833 74 -89.5s27 -76.5 27 -122.5v-549h-201v535c0 39.333 -14.667 71 -44 95s-68 36 -116 36c-30 0 -58.667 -5.5 -86 -16.5
s-47.666 -25.5 -60.999 -43.5v-442h127v-164h-328z" />
    <glyph glyph-name="afii59703;" unicode="&#xe17;" horiz-adv-x="874" 
d="M82 0l-0.00292969 819h201v-102c10.667 15.333 24.167 29.333 40.5 42s34.833 24.667 55.5 36c46.667 26 97.667 39 153 39c72.667 0 132.334 -21.333 179.001 -64c54.667 -46.667 82 -111.667 82 -195v-575h-201v551c0 34 -12.667 62.333 -38 85s-57.666 34 -96.999 34
c-20.667 0 -41.667 -3.83301 -63 -11.5s-40.166 -18 -56.499 -31s-29.5 -28 -39.5 -45s-15 -35.167 -15 -54.5v-528h-201z" />
    <glyph glyph-name="afii59704;" unicode="&#xe18;" horiz-adv-x="796" 
d="M51 596c0 68 34.333 124.001 103 168.001c66.667 45.333 147.667 67.666 243 66.999c87.333 0 162.833 -22.5 226.5 -67.5s103.5 -106.167 119.5 -183.5h-204c-5.33301 26 -23.166 46.833 -53.499 62.5s-65.833 23.5 -106.5 23.5c-36.667 0 -66.667 -5.5 -90 -16.5
s-35 -24.833 -35 -41.5c0 -18 16.667 -31.667 50 -41s74 -16.666 122 -21.999c94 -12 167 -36.667 219 -74c66.667 -46.667 100 -117 100 -211c0 -92.667 -36.667 -162.334 -110 -209.001c-68 -36.667 -157.333 -55 -268 -55c-32.667 0 -66.5 1.33301 -101.5 4
s-70.167 7.33398 -105.5 14.001c-10.667 2.66699 -23.334 6.5 -38.001 11.5s-30.667 10.833 -48 17.5v287l196 51v-217c18 -4 32.5 -6.66699 43.5 -8s28.833 -2 53.5 -2c50.667 0 90.667 8.66699 120 26c38 22 57.333 52 58 90c0 35.333 -16 61.666 -48 78.999
s-70.667 28.666 -116 33.999c-101.333 10.667 -178.333 30.334 -231 59.001c-65.333 34 -98.333 85.333 -99 154z" />
    <glyph glyph-name="afii59705;" unicode="&#xe19;" horiz-adv-x="874" 
d="M82 244l0.000976562 575h201v-551c0 -34 12.5 -62.167 37.5 -84.5s57.5 -33.5 97.5 -33.5c20.667 0 41.5 3.66699 62.5 11s39.667 17.5 56 30.5s29.666 28 39.999 45s15.5 35.167 15.5 54.5v528h201v-819h-201v102c-23.333 -30 -57.5 -55.5 -102.5 -76.5
s-94.167 -31.5 -147.5 -31.5c-72.667 0 -132 18.333 -178 55c-54.667 46.667 -82 111.667 -82 195z" />
    <glyph glyph-name="afii59706;" unicode="&#xe1a;" horiz-adv-x="872" 
d="M82 281l0.00195312 538h201v-538c0 -42 13.667 -73.667 41 -95s64.666 -32 111.999 -32c46.667 0 84 10.5 112 31.5s42 52.833 42 95.5v538h201v-538c0 -87.333 -31.5 -157 -94.5 -209s-149.833 -78 -260.5 -78c-106.667 0 -192.334 25.167 -257.001 75.5
s-97 120.833 -97 211.5z" />
    <glyph glyph-name="afii59707;" unicode="&#xe1b;" horiz-adv-x="872" 
d="M82 281l0.00195312 538h201v-538c0 -42 13.667 -73.667 41 -95s64.666 -32 111.999 -32c46.667 0 84 10.5 112 31.5s42 52.833 42 95.5v751h201v-751c0 -87.333 -31.5 -157 -94.5 -209s-149.833 -78 -260.5 -78c-106.667 0 -192.334 25.167 -257.001 75.5
s-97 120.833 -97 211.5z" />
    <glyph glyph-name="afii59708;" unicode="&#xe1c;" horiz-adv-x="1097" 
d="M0 819h334v-162h-101l84 -329l170 491h121l174 -491l133 491h181l-230 -819h-141l-178 518l-176 -518h-140z" />
    <glyph glyph-name="afii59709;" unicode="&#xe1d;" horiz-adv-x="1097" 
d="M0 819h334v-162h-101l84 -329l170 491h121l174 -491l191 704h180l-289 -1032h-139l-178 516l-176 -516h-140z" />
    <glyph glyph-name="afii59710;" unicode="&#xe1e;" horiz-adv-x="1097" 
d="M0 819h190l127 -491l170 491h121l174 -491l133 491h181l-230 -819h-141l-178 518l-176 -518h-140z" />
    <glyph glyph-name="afii59711;" unicode="&#xe1f;" horiz-adv-x="1097" 
d="M0 819h190l127 -491l170 491h121l174 -491l193 704h180l-291 -1032h-139l-178 516l-176 -516h-140z" />
    <glyph glyph-name="afii59712;" unicode="&#xe20;" horiz-adv-x="892" 
d="M20 0l-0.000976562 164h82v502c83.333 112 201.666 168 354.999 168c50.667 0 97.834 -6.16699 141.501 -18.5s81.167 -30.5 112.5 -54.5s55.833 -53.833 73.5 -89.5s26.5 -76.5 26.5 -122.5v-549h-201v535c0 39.333 -14.667 71 -44 95s-67.666 36 -114.999 36
c-30 0 -58.667 -5.5 -86 -16.5s-48 -25.5 -62 -43.5v-606h-283z" />
    <glyph glyph-name="afii59713;" unicode="&#xe21;" horiz-adv-x="874" 
d="M82 0l-0.000976562 818.999h201v-528c0 -19.333 5 -37.5 15 -54.5s23.167 -32 39.5 -45s35.166 -23.167 56.499 -30.5s42.333 -11 63 -11c40.667 0 73.334 10.833 98.001 32.5s37 50.167 37 85.5v551h201v-575c0 -80.667 -26.667 -143.667 -80 -189
c-52 -40.667 -112.333 -61 -181 -61c-57.333 0 -106.666 9.83301 -147.999 29.5s-75 45.834 -101 78.501v-102h-201z" />
    <glyph glyph-name="afii59714;" unicode="&#xe22;" horiz-adv-x="860" 
d="M41 268c0 45.333 14.333 83.668 43 115.001s65 53.333 109 66c-36.667 9.33301 -67.667 25.666 -93 48.999c-28.667 28.667 -43 63.334 -43 104.001c0 62.667 26.667 116 80 160c54.667 45.333 121.667 67.666 201 66.999c50.667 0 104.667 -9.33301 162 -28v-166
c-19.333 10.667 -38.833 18.5 -58.5 23.5s-40.5 7.5 -62.5 7.5c-76.667 0 -115 -22.667 -115 -68c0 -20.667 13.667 -37.167 41 -49.5s61.666 -18.5 102.999 -18.5c10.667 0 23.834 1.16699 39.501 3.5l52.5 7.5v-174h-90c-48 0 -87.333 -9.33301 -118 -28
s-46 -43.667 -46 -75c0 -35.333 16.667 -62.5 50 -81.5s76.666 -28.5 129.999 -28.5c35.333 0 64.333 3.66699 87 11s44.334 18 65.001 32v622h200v-674c-31.333 -35.333 -59.333 -61 -84 -77c-80.667 -48 -170 -72 -268 -72c-120 0 -214.167 24.833 -282.5 74.5
s-102.5 115.5 -102.5 197.5z" />
    <glyph glyph-name="afii59715;" unicode="&#xe23;" horiz-adv-x="804" 
d="M33 289l196.002 -0.00292969c0 -44 17.167 -76.833 51.5 -98.5s75.166 -32.5 122.499 -32.5c39.333 0 74.833 9.16699 106.5 27.5s47.5 41.833 47.5 70.5s-17 49.667 -51 63c-10.667 5.33301 -25 9.83301 -43 13.5s-39.333 6.83398 -64 9.50098
c-105.333 10.667 -184.333 29.667 -237 57c-70.667 36.667 -106.334 91.334 -107.001 164.001c0 76.667 33 141 99 193c68 52 147.667 78 239 78c98 0 179.5 -21 244.5 -63s106.5 -108 124.5 -198h-201c-6.66699 26 -25.667 48 -57 66s-67 27 -107 27
c-39.333 0 -72.333 -8 -99 -24s-40 -34 -40 -54c0 -22 21.333 -39 64 -51c19.333 -6.66699 56.666 -13 111.999 -19c128.667 -13.333 216 -41.333 262 -84c40.667 -36.667 61.334 -88.334 62.001 -155.001c0 -90 -37 -162.667 -111 -218
c-68 -45.333 -152 -67.666 -252 -66.999c-100 0 -184 21.667 -252 65c-74 54.667 -110.667 131.334 -110 230.001z" />
    <glyph glyph-name="afii59716;" unicode="&#xe24;" horiz-adv-x="872" 
d="M82 0l-0.00195312 666c83.333 112 201.333 168 354 168c50.667 0 97.834 -6.16699 141.501 -18.5s81.167 -30.5 112.5 -54.5s56 -53.833 74 -89.5s27 -76.5 27 -122.5v-848h-201v834c0 39.333 -14.667 71 -44 95s-68 36 -116 36c-30 0 -58.667 -5.5 -86 -16.5
s-47.666 -25.5 -60.999 -43.5v-442h127v-164h-328z" />
    <glyph glyph-name="afii59717;" unicode="&#xe25;" horiz-adv-x="886" 
d="M41 270c0 83.333 32.8359 151 98.5029 203s158.5 78 278.5 78c74 0 136 -13 186 -39v82c-10.667 20.667 -30.334 37.834 -59.001 51.501s-61.667 20.5 -99 20.5c-39.333 0 -75.333 -8.66699 -108 -26s-55.334 -43.666 -68.001 -78.999h-213c8 42 24 80.167 48 114.5
s53.5 63.166 88.5 86.499s74.667 41.166 119 53.499s91.166 18.5 140.499 18.5c94 0 173.667 -20.667 239 -62c61.333 -38 99 -84.333 113 -139v-633h-201v291c-39.333 53.333 -103.333 80 -192 80c-49.333 0 -89.333 -10 -120 -30s-46 -45.667 -46 -77
c0 -24.667 9.5 -45.167 28.5 -61.5s44.167 -24.5 75.5 -24.5c16.667 0 33.167 1.66699 49.5 5s32.833 11.333 49.5 24l104 -144c-31.333 -26 -64.833 -43.333 -100.5 -52s-77.167 -13 -124.5 -13c-87.333 0 -157 25.667 -209 77s-78 116.333 -78 195z" />
    <glyph glyph-name="afii59718;" unicode="&#xe26;" horiz-adv-x="892" 
d="M20 0l-0.000976562 164h82v502c83.333 112 201.666 168 354.999 168c50.667 0 97.834 -6.16699 141.501 -18.5s81.167 -30.5 112.5 -54.5s55.833 -53.833 73.5 -89.5s26.5 -76.5 26.5 -122.5v-848h-201v834c0 39.333 -14.667 71 -44 95s-67.666 36 -114.999 36
c-30 0 -58.667 -5.5 -86 -16.5s-48 -25.5 -62 -43.5v-606h-283z" />
    <glyph glyph-name="afii59719;" unicode="&#xe27;" horiz-adv-x="800" 
d="M41 317h197c12 -49.333 31.667 -87.5 59 -114.5s60.666 -40.5 99.999 -40.5c54.667 0 96.334 25.333 125.001 76c24.667 42 37 99.333 37 172s-12.333 130.667 -37 174c-28.667 50.667 -69.667 75.667 -123 75c-83.333 0 -136.333 -52.333 -159 -157h-199
c15.333 106.667 54 188.667 116 246s142 86 240 86c116 0 205.5 -37.5 268.5 -112.5s94.5 -178.833 94.5 -311.5s-31.5 -235.167 -94.5 -307.5s-152.5 -108.5 -268.5 -108.5c-98 0 -178.167 26.333 -240.5 79s-100.833 134 -115.5 244z" />
    <glyph glyph-name="afii59720;" unicode="&#xe28;" horiz-adv-x="892" 
d="M82 0v539c0 84.667 34 155 102 211c72.667 56 160 84 262 84c61.333 0 108 -7 140 -21l59 78l191 -74l-91 -104c44 -52 66 -110 66 -174v-539h-201v551c0 35.333 -14.667 63.333 -44 84s-69.333 31 -120 31c-49.333 0 -88.833 -10.333 -118.5 -31
s-44.5 -48.667 -44.5 -84v-68h225v-164h-225v-319h-201z" />
    <glyph glyph-name="afii59721;" unicode="&#xe29;" horiz-adv-x="892" 
d="M82 281l0.00195312 538h201v-538c0 -42 13.667 -73.667 41 -95s64.666 -32 111.999 -32c46.667 0 84 10.5 112 31.5s42 52.833 42 95.5v81h-203v185l82 -21h121v293h201v-293h90v-164h-90v-81c0 -87.333 -31.5 -157 -94.5 -209s-149.833 -78 -260.5 -78
c-106.667 0 -192.334 25.167 -257.001 75.5s-97 120.833 -97 211.5z" />
    <glyph glyph-name="afii59722;" unicode="&#xe2a;" horiz-adv-x="890" 
d="M41 270c0 83.333 32.835 151 98.502 203s158.5 78 278.5 78c74 0 136 -13 186 -39v82c-10.667 20.667 -30.334 37.834 -59.001 51.501s-61.667 20.5 -99 20.5c-39.333 0 -75.333 -8.66699 -108 -26s-55.334 -43.666 -68.001 -78.999h-213c8 42 24 80.167 48 114.5
s53.5 63.166 88.5 86.499s74.667 41.166 119 53.499s91.166 18.5 140.499 18.5c46.667 0 92.334 -7.66699 137.001 -23l57 80l191 -70l-84 -104c26 -26 43 -54 51 -84v-633h-201v291c-39.333 53.333 -103.333 80 -192 80c-49.333 0 -89.333 -10 -120 -30
s-46 -45.667 -46 -77c0 -24.667 9.5 -45.167 28.5 -61.5s44.167 -24.5 75.5 -24.5c16.667 0 33.167 1.66699 49.5 5s32.833 11.333 49.5 24l104 -144c-31.333 -26 -64.833 -43.333 -100.5 -52s-77.167 -13 -124.5 -13c-87.333 0 -157 25.667 -209 77s-78 116.333 -78 195z
" />
    <glyph glyph-name="afii59723;" unicode="&#xe2b;" horiz-adv-x="868" 
d="M82 0v818.999h197v-239l309 249l200 -51l-190 -157c54.667 -12 99.667 -36.167 135 -72.5s53 -83.166 53 -140.499v-408h-194v352c0 48 -10.333 85 -31 111s-54 41.667 -100 47l-182 -152v-358h-197z" />
    <glyph glyph-name="afii59724;" unicode="&#xe2c;" horiz-adv-x="1097" 
d="M0 819l198.998 -0.00195312l125 -467l159 467h129l166 -471l53 213c1.33301 6.66699 2.5 12.834 3.5 18.501s1.5 9.83398 1.5 12.501c0 42 -22.667 63 -68 63h-47v164h76c36.667 0 62.834 3.83301 78.501 11.5s26.834 22.167 33.501 43.5l27 89h203l-41 -146
c-8 -30 -23.333 -54.167 -46 -72.5s-49.667 -32.5 -81 -42.5c38 -22 57 -57.333 57 -106c0 -16.667 -2 -31.667 -6 -45l-156 -551h-147l-172 502l-170 -502h-146z" />
    <glyph glyph-name="afii59725;" unicode="&#xe2d;" horiz-adv-x="946" 
d="M41 410l4 60.998h414v-164h-195c35.333 -88.667 104.333 -133 207 -133c69.333 0 124.5 21.5 165.5 64.5s61.5 100.167 61.5 171.5c0 69.333 -20.5 125.5 -61.5 168.5s-96.167 64.5 -165.5 64.5c-44 0 -82.333 -8.5 -115 -25.5s-60 -45.5 -82 -85.5h-217
c34 102.667 88 178.667 162 228s158 74 252 74c126.667 0 229.667 -39.667 309 -119c80.667 -78 121 -179.667 121 -305c0 -121.333 -40.333 -222.666 -121 -303.999c-79.333 -75.333 -182.333 -112.666 -309 -111.999c-130 0 -234.333 36.667 -313 110
c-78 78 -117 180 -117 306z" />
    <glyph glyph-name="afii59726;" unicode="&#xe2e;" horiz-adv-x="946" 
d="M41 410l4 60.998h414v-164h-195c35.333 -88.667 104.333 -133 207 -133c69.333 0 124.5 21.5 165.5 64.5s61.5 100.167 61.5 171.5c0 69.333 -20.5 125.5 -61.5 168.5s-96.167 64.5 -165.5 64.5c-44 0 -82.333 -8.5 -115 -25.5s-60 -45.5 -82 -85.5h-217
c34 102.667 88 178.667 162 228s158 74 252 74c64 0 120.667 -10.333 170 -31l66 88l192 -72l-100 -125c68 -76 102 -170.667 102 -284c0 -121.333 -40.333 -222.666 -121 -303.999c-79.333 -75.333 -182.333 -112.666 -309 -111.999c-130 0 -234.333 36.667 -313 110
c-78 78 -117 180 -117 306z" />
    <glyph glyph-name="afii59727;" unicode="&#xe2f;" horiz-adv-x="817" 
d="M23 610c0 31.333 6.66797 60.335 20.001 87.002s32.333 50 57 70s53.834 35.333 87.501 46s70.167 16 109.5 16c45.333 0 100.666 -11.333 165.999 -34v-154c-19.333 9.33301 -41.333 16.166 -66 20.499s-47 6.5 -67 6.5c-70.667 0 -106.334 -19.333 -107.001 -58
c0 -18 11 -32 33 -42s47.333 -15 76 -15c48 0 91.667 10.333 131 31c26 13.333 50.667 31.666 74 54.999v180h198v-819h-198v457c-24.667 -18 -56.5 -34.167 -95.5 -48.5s-79.833 -21.5 -122.5 -21.5c-94 0 -166.833 21.833 -218.5 65.5s-77.5 96.167 -77.5 157.5z" />
    <glyph glyph-name="afii59729;" unicode="&#xe30;" horiz-adv-x="421" 
d="M51 102v228h201v-84h129v-144h-330zM51 489v228h201v-84h129v-144h-330z" />
    <glyph glyph-name="afii59728;" unicode="&#xe31;" 
d="M-473 922v245h201v-102h436v-143h-637z" />
    <glyph glyph-name="afii59730;" unicode="&#xe32;" horiz-adv-x="622" 
d="M33 602l-0.00195312 183.999c70.667 31.333 137.334 47.333 200.001 48c100 0 176 -29.167 228 -87.5s78 -133.166 78 -224.499v-522h-191v504c0 48 -13.667 84.5 -41 109.5s-64.666 37.5 -111.999 37.5c-57.333 0 -111.333 -16.333 -162 -49z" />
    <glyph glyph-name="afii59731;" unicode="&#xe33;" horiz-adv-x="620" 
d="M-319 1047c0 38 13.5 70 40.5 96s61.833 39 104.5 39c42 0 76.667 -13 104 -39s41 -58 41 -96s-13.667 -70.167 -41 -96.5s-62 -39.5 -104 -39.5s-76.667 13 -104 39s-41 58.333 -41 97zM-229 1047c0 -13.333 5.66699 -25.3311 17 -35.998s24 -16 38 -16
c15.333 0 28.333 4.83301 39 14.5s16 22.167 16 37.5c0 13.333 -5.83301 25.166 -17.5 35.499s-24.167 15.5 -37.5 15.5c-15.333 0 -28.333 -4.83301 -39 -14.5s-16 -21.834 -16 -36.501zM33 602.002l-0.00195312 183.999c70.667 31.333 137.334 47.333 200.001 48
c100 0 176 -29.167 228 -87.5s78 -133.166 78 -224.499v-522h-191v504c0 48 -13.667 84.5 -41 109.5s-64.666 37.5 -111.999 37.5c-57.333 0 -111.333 -16.333 -162 -49z" />
    <glyph glyph-name="afii59732;" unicode="&#xe34;" 
d="M-750 922v143h676v-143h-676z" />
    <glyph glyph-name="afii59733;" unicode="&#xe35;" 
d="M-750 922v143h476v102h200v-245h-676z" />
    <glyph glyph-name="afii59734;" unicode="&#xe36;" 
d="M-750 922l-0.000976562 143.001h441c4 34 18.333 62 43 84s55.334 33 92.001 33c38 0 70.333 -12.667 97 -38s40 -56.333 40 -93s-13 -67.334 -39 -92.001s-58.667 -37 -98 -37h-576zM-225.001 1051c0 -34 17 -51.333 51 -52c34 0.666992 51 18 51 52s-17 51 -51 51
s-51 -17 -51 -51z" />
    <glyph glyph-name="afii59735;" unicode="&#xe37;" 
d="M-750 922v143h306v102h108v-102h62v102h200v-245h-676z" />
    <glyph glyph-name="afii59736;" unicode="&#xe38;" 
d="M-356 -74h282v-276h-200v153h-82v123z" />
    <glyph glyph-name="afii59737;" unicode="&#xe39;" 
d="M-594 -74h237.999v-141c10.667 -6.66699 24.334 -10 41.001 -10c27.333 0 41 10.667 41 32v119h200v-143c0 -23.333 -6.16699 -43.833 -18.5 -61.5s-29.333 -32.667 -51 -45s-46.5 -21.5 -74.5 -27.5s-58.333 -9 -91 -9c-40.667 0 -81.667 6.33301 -123 19s-74 32 -98 58
v86h-64v123z" />
    <glyph glyph-name="afii59738;" unicode="&#xe3a;" 
d="M-307 -197c0 32.667 13 61.334 39 86.001s57.333 37 94 37s68 -12.333 94 -37s39 -53.334 39 -86.001s-13 -61.167 -39 -85.5s-57.333 -36.5 -94 -36.5s-68 12.167 -94 36.5s-39 52.833 -39 85.5z" />
    <glyph glyph-name="afii59743;" unicode="&#xe3f;" horiz-adv-x="952" 
d="M102 0v964.999h347v129h57v-129h65c91.333 0 162 -19.5 212 -58.5s75 -99.5 75 -181.5c0 -95.333 -45.667 -163.666 -137 -204.999c120 -30 180 -114 180 -252c0 -80.667 -27.333 -144 -82 -190c-64 -52 -154.667 -78 -272 -78h-41v-121h-57v121h-347zM272 136.999h177
v301h-177v-301zM272 560.999h177v266h-177v-266zM506 136.999h65c52 0 92 13.333 120 40s42 64.667 42 114c0 98 -54 147 -162 147h-65v-301zM506 560.999h41c95.333 0 143 44.333 143 133s-47.667 133 -143 133h-41v-266z" />
    <glyph glyph-name="afii59744;" unicode="&#xe40;" horiz-adv-x="405" 
d="M102 0v819h201v-819h-201z" />
    <glyph glyph-name="afii59745;" unicode="&#xe41;" horiz-adv-x="749" 
d="M102 0v819h201v-819h-201zM446 0v819h201v-819h-201z" />
    <glyph glyph-name="afii59746;" unicode="&#xe42;" horiz-adv-x="446" 
d="M0 1112c0 42 16.332 73.667 48.999 95s79.667 32 141 32h291v-154h-211c-38 0 -57 -4 -57 -12c28.667 -18 54.334 -40.833 77.001 -68.5s34 -61.5 34 -101.5v-903h-201v895c0 34 -29.333 79.667 -88 137c-23.333 27.333 -35 54 -35 80z" />
    <glyph glyph-name="afii59747;" unicode="&#xe43;" horiz-adv-x="446" 
d="M-80 1036c0 75.333 23.167 134.83 69.5 178.497s106.5 65.5 180.5 65.5c75.333 0 136.166 -20.167 182.499 -60.5s69.5 -89.166 69.5 -146.499c0 -30 -10.333 -56 -31 -78c-45.333 -52 -67.666 -90.667 -66.999 -116v-879h-201v899c0 38 22.333 77.667 67 119
c22 20.667 33 40.334 33 59.001c0 15.333 -5 28.833 -15 40.5s-24.667 17.5 -44 17.5c-20.667 0 -38.167 -8.66699 -52.5 -26s-21.5 -41.666 -21.5 -72.999h-170z" />
    <glyph glyph-name="afii59748;" unicode="&#xe44;" horiz-adv-x="405" 
d="M-135 1151l115.001 119.001l114 -113l123 100l209 -213c-82 -61.333 -123 -130.666 -123 -207.999v-836h-201v817c0 45.333 13.667 89.666 41 132.999c9.33301 15.333 20.666 30.166 33.999 44.499l42 43.5l-26 27l-121 -107z" />
    <glyph glyph-name="afii59749;" unicode="&#xe45;" horiz-adv-x="643" 
d="M33 602l-0.000976562 184c70.667 31.333 137.334 47.333 200.001 48c102.667 0 182.667 -29.5 240 -88.5s86 -133.5 86 -223.5v-821h-190v803c0 48 -16.5 84.5 -49.5 109.5s-74.5 37.5 -124.5 37.5c-57.333 0 -111.333 -16.333 -162 -49z" />
    <glyph glyph-name="afii59750;" unicode="&#xe46;" horiz-adv-x="839" 
d="M33 385v174c0 86 21.833 152.5 65.5 199.5s108.5 70.5 194.5 70.5l100 -77l103 77c86 0 150.833 -23.5 194.5 -70.5s65.5 -113.5 65.5 -199.5v-858h-201v887c0 46.667 -15 72 -45 76l-111 -89l-125 89c-30 -4 -45 -29.333 -45 -76v-41h136v-162h-332z" />
    <glyph glyph-name="afii59751;" unicode="&#xe47;" 
d="M-690 922v88c0 62.667 20.167 114.167 60.5 154.5s97.833 60.5 172.5 60.5h383v-103h-377c-30 0 -54.167 -7.83301 -72.5 -23.5s-27.5 -34.5 -27.5 -56.5h74l108 60l105 -60h127v-120h-137l-95 55l-98 -55h-223z" />
    <glyph glyph-name="afii59752;" unicode="&#xe48;" 
d="M-274 1229v205h200v-205h-200z" />
    <glyph glyph-name="afii59753;" unicode="&#xe49;" 
d="M-403 1339v111h110c69.333 0 104.333 -29.333 105 -88l219 -4v-129h-381v90c0 13.333 -6.33301 20 -19 20h-34z" />
    <glyph glyph-name="afii59754;" unicode="&#xe4a;" 
d="M-438 1229v97.999c0 40.667 12.167 71.334 36.5 92.001s58.5 31 102.5 31h45l72 -49l65 49h45c83.333 0 125 -37 125 -111v-12h105v-98h-250v94c0 9.33301 -2 16 -6 20c-2.66699 0 -4.66699 1 -6 3l-78 -64l-90 64c-8 -8 -12.333 -15.667 -13 -23v-57l19 -37h-172z" />
    <glyph glyph-name="afii59755;" unicode="&#xe4b;" 
d="M-348 1307v112h92v78h160v-78h92v-112h-92v-78h-160v78h-92z" />
    <glyph glyph-name="afii59756;" unicode="&#xe4c;" 
d="M-299 1147v57c0 44 13 76.5 39 97.5s61.333 31.5 106 31.5h146v-121h-60c-34 0 -51 -14.333 -51 -43v-22h-180z" />
    <glyph glyph-name="afii59757;" unicode="&#xe4d;" 
d="M-319 1047c0 38 13.5 70 40.5 96s61.833 39 104.5 39c42 0 76.667 -13 104 -39s41 -58 41 -96s-13.667 -70.167 -41 -96.5s-62 -39.5 -104 -39.5s-76.667 13 -104 39s-41 58.333 -41 97zM-229 1047c0 -13.333 5.66699 -25.3311 17 -35.998s24 -16 38 -16
c15.333 0 28.333 4.83301 39 14.5s16 22.167 16 37.5c0 13.333 -5.83301 25.166 -17.5 35.499s-24.167 15.5 -37.5 15.5c-15.333 0 -28.333 -4.83301 -39 -14.5s-16 -21.834 -16 -36.501z" />
    <glyph glyph-name="afii59758;" unicode="&#xe4e;" 
d="M-549 1135c0 22 5.5 41.8281 16.5 59.4951s24.333 33 40 46s32.667 23.5 51 31.5s35.166 13.333 50.499 16c-19.333 16.667 -29 39.334 -29 68.001c0 26 13 53.333 39 82s56.667 49.667 92 63c34 13.333 76 22.5 126 27.5s96 7.5 138 7.5h25h2v-106
c-24.667 2.66699 -54.667 2.16699 -90 -1.5s-68.833 -9.16699 -100.5 -16.5s-58 -16.166 -79 -26.499s-29.5 -20.166 -25.5 -29.499c0 -15.333 9.5 -25.666 28.5 -30.999s42.167 -8 69.5 -8h19h4v-94h-12h-17c-6.66699 0 -12 0.666992 -16 2c-28.667 0 -51.5 -1 -68.5 -3
s-37.833 -7.33301 -62.5 -16c-24.667 -6.66699 -44.5 -16.167 -59.5 -28.5s-20.5 -25.166 -16.5 -38.499c4 -10.667 17.667 -16.334 41 -17.001c18 0 38.833 3.5 62.5 10.5s43.834 16.5 60.501 28.5l53 -90c-23.333 -10.667 -41.666 -18.667 -54.999 -24
c-44 -18 -85.667 -27 -125 -27c-4 1.33301 -9.33301 2 -16 2h-11c-40.667 5.33301 -73.334 18.333 -98.001 39s-37 45.334 -37 74.001z" />
    <glyph glyph-name="afii59759;" unicode="&#xe4f;" horiz-adv-x="983" 
d="M72 410c0 116 40.833 214.833 122.5 296.5s180.834 122.5 297.501 122.5c116 0 214.833 -40.833 296.5 -122.5s122.5 -180.5 122.5 -296.5s-41 -215 -123 -297c-84.667 -76.667 -183.334 -115 -296.001 -115c-113.333 0 -212.333 38.333 -297 115
c-82 82 -123 181 -123 297zM133 410c0 -98 34.999 -182.667 104.999 -254c70.667 -69.333 155.334 -104.333 254.001 -105c98 0 181.667 35 251 105c71.333 71.333 107 156 107 254s-35.667 182 -107 252c-69.333 70.667 -153 106 -251 106s-182.667 -35.333 -254 -106
c-69.333 -69.333 -104.333 -153.333 -105 -252zM235.999 410c0 70.667 24.332 130.666 72.999 179.999c50.667 50.667 111.667 76 183 76c70.667 0 130.667 -25.333 180 -76c50.667 -49.333 76 -109.333 76 -180s-25.333 -131.667 -76 -183
c-49.333 -49.333 -109.333 -73.666 -180 -72.999c-70.667 0 -131.667 24.333 -183 73c-49.333 50.667 -73.666 111.667 -72.999 183z" />
    <glyph glyph-name="afii59760;" unicode="&#xe50;" horiz-adv-x="835" 
d="M51 315c0 88.667 34.333 166 103 232c66.667 65.333 154.667 98 264 98c108 0 196 -32.667 264 -98c68 -64.667 102 -142 102 -232s-34 -167 -102 -231c-68 -60 -156 -90 -264 -90c-109.333 0 -197.333 29.333 -264 88c-68 64 -102.333 141.667 -103 233zM246 315
c0 -20.667 4.33203 -40.499 12.999 -59.499s20.5 -35.667 35.5 -50s32.833 -25.833 53.5 -34.5s43.334 -13 68.001 -13c49.333 0 90.333 15.667 123 47s49 68 49 110s-16 78.5 -48 109.5s-73.333 46.5 -124 46.5c-49.333 0 -90 -15.333 -122 -46s-48 -67.334 -48 -110.001z
" />
    <glyph glyph-name="afii59761;" unicode="&#xe51;" horiz-adv-x="890" 
d="M51 332c0 90 38.334 165 115.001 225c75.333 58.667 166 88 272 88c113.333 0 208.333 -30.667 285 -92c78 -60.667 117 -140 117 -238c0 -109.333 -46.667 -204 -140 -284c-86 -68 -193 -111.667 -321 -131l-76 112c102.667 10.667 185.667 41 249 91s95 111.333 95 184
c0 57.333 -18.667 103.333 -56 138s-87.666 52 -150.999 52c-54.667 0 -100.667 -14.333 -138 -43s-56 -63.334 -56 -104.001c0 -13.333 2.66699 -28.666 8 -45.999s12 -28.666 20 -33.999c0 42 15.167 77.333 45.5 106s67.166 43 110.499 43c45.333 0 83 -13.667 113 -41
s45 -60.666 45 -99.999c0 -54.667 -21.833 -100.334 -65.5 -137.001s-102.5 -55 -176.5 -55c-80.667 0 -150.334 24.333 -209.001 73c-57.333 49.333 -86 113.666 -86 192.999zM375.001 256c0 -13.333 5.5 -24.833 16.5 -34.5s23.833 -14.5 38.5 -14.5
c36.667 0 55 16.333 55 49c0 12 -5.33301 22.833 -16 32.5s-23.667 14.5 -39 14.5c-36.667 0 -55 -15.667 -55 -47z" />
    <glyph glyph-name="afii59762;" unicode="&#xe52;" horiz-adv-x="1161" 
d="M-33 764l148 116.999c50.667 -30 89.5 -65.833 116.5 -107.5s40.5 -91.167 40.5 -148.5v-389c0 -31.333 7.5 -52.833 22.5 -64.5s37.5 -17.5 67.5 -17.5h521v270c0 34 -13.667 56.667 -41 68l-123 -101l-141 101c-13.333 0 -25 -4.16699 -35 -12.5
s-15 -17.166 -15 -26.499c36.667 -4 65 -18.333 85 -43s30 -55 30 -91c0 -38 -15 -70 -45 -96s-67 -39 -111 -39c-42 0 -78 13 -108 39s-45 58 -45 96v99c0 74 25.5 130.333 76.5 169s117.5 58 199.5 58l103 -78l104 78c82 0 145.833 -21.167 191.5 -63.5
s68.5 -96.833 68.5 -163.5v-418h-792c-135.333 0 -203 52 -203 156v450c0 26 -9.66699 54.667 -29 86c-23.333 35.333 -52 59.333 -86 72zM440 321.999c0 -30 16.333 -45.332 49 -45.999c33.333 0.666992 50 16 50 46s-16.667 45 -50 45
c-13.333 0 -24.833 -4.83301 -34.5 -14.5s-14.5 -19.834 -14.5 -30.501z" />
    <glyph glyph-name="afii59763;" unicode="&#xe53;" horiz-adv-x="952" 
d="M82 160v221.001c0 74 22.5 134.167 67.5 180.5s113.167 74.166 204.5 83.499l123 -84l125 84c87.333 -8 153.833 -35.5 199.5 -82.5s68.5 -107.5 68.5 -181.5v-381h-196v365c0 50.667 -22.667 83.334 -68 98.001l-123 -94l-135 94
c-45.333 -15.333 -67.666 -48 -66.999 -98v-41c44 -4 81.5 -22.167 112.5 -54.5s46.5 -68.833 46.5 -109.5c0 -46.667 -17.333 -85.334 -52 -116.001s-77.334 -46 -128.001 -46c-53.333 0 -96.333 15 -129 45s-49 69 -49 117zM203 160.001c0 -38 19 -57.333 57 -58
c44 0.666992 66 20 66 58s-22 57 -66 57c-38 0 -57 -19 -57 -57z" />
    <glyph glyph-name="afii59764;" unicode="&#xe54;" horiz-adv-x="960" 
d="M51 307c0 96.667 36.9971 176.001 110.997 238.001c75.333 62.667 166 94 272 94h232c32.667 0 53.667 16.667 63 50s14 85 14 155h195c0 -114.667 -17.667 -204.334 -53 -269.001c-39.333 -68 -102.333 -102 -189 -102h-262c-52 0 -96.333 -15 -133 -45
s-55 -70.333 -55 -121c0 -44 17 -78.833 51 -104.5s74.333 -38.5 121 -38.5c42 0 70.667 2.66699 86 8c-23.333 27.333 -35 61.333 -35 102c0 44 16.333 80.333 49 109s72.334 43 119.001 43s86 -14.667 118 -44s48 -63.666 48 -102.999c0 -23.333 -2.5 -42.833 -7.5 -58.5
s-12.167 -29.834 -21.5 -42.501c32.667 -5.33301 64.334 -13.166 95.001 -23.499s59 -26.5 85 -48.5l-112 -126c-79.333 31.333 -138 47 -176 47c-9.33301 0 -23 -1.5 -41 -4.5s-40.667 -7.16699 -68 -12.5c-23.333 -2.66699 -47.166 -5 -71.499 -7s-49.5 -3 -75.5 -3
c-101.333 0 -184 24 -248 72c-74 57.333 -111 135.666 -111 234.999zM577.997 279.001c0 -32.667 19.667 -49.3311 59 -49.998c22 0 37 6 45 18s12 22.667 12 32c0 13.333 -5 25.166 -15 35.499s-24 15.5 -42 15.5s-32.333 -4.83301 -43 -14.5s-16 -21.834 -16 -36.501z" />
    <glyph glyph-name="afii59765;" unicode="&#xe55;" horiz-adv-x="960" 
d="M51 309c0 74 22.166 137.999 66.499 191.999s107.5 89.667 189.5 107c-13.333 18 -20 40.667 -20 68c0 46.667 17.667 85.667 53 117s81.666 47 138.999 47s103.833 -14.333 139.5 -43s53.5 -67 53.5 -115c0 -19.333 -3.33301 -34.333 -10 -45h14
c39.333 0 66.5 19.833 81.5 59.5s22.5 88.834 22.5 147.501h191c0 -112 -24 -201.833 -72 -269.5s-113.667 -101.5 -197 -101.5h-239c-62.667 0 -114.834 -14.333 -156.501 -43s-62.5 -69 -62.5 -121c0 -44 17.333 -79.167 52 -105.5s75.334 -39.5 122.001 -39.5
c42 0 70.667 2.66699 86 8c-23.333 27.333 -35 61.333 -35 102c0 44 16.333 80.333 49 109s72.334 43 119.001 43s86 -14.667 118 -44s48 -63.666 48 -102.999c0 -23.333 -2.5 -42.833 -7.5 -58.5s-12.167 -29.834 -21.5 -42.501c24.667 -5.33301 44.167 -9 58.5 -11
s22.833 -3.66699 25.5 -5c38 -10.667 70 -27 96 -49l-112 -133c-79.333 31.333 -138 47 -176 47c-9.33301 0 -23 -1.5 -41 -4.5s-40.667 -7.16699 -68 -12.5c-23.333 -2.66699 -47.166 -5 -71.499 -7s-49.5 -3 -75.5 -3c-101.333 0 -184 24 -248 72
c-74 57.333 -111 136.333 -111 237zM415.999 677.999c0 -15.333 6.16797 -28.333 18.501 -39s27.166 -16 44.499 -16c42.667 0 64 18.333 64 55c0 16.667 -5.83301 30 -17.5 40s-27.167 15 -46.5 15c-18 0 -33 -5.5 -45 -16.5s-18 -23.833 -18 -38.5zM578 278.999
c0 -32.667 19.667 -49.3311 59 -49.998c22 0 37 6 45 18s12 22.667 12 32c0 13.333 -5 25.166 -15 35.499s-24 15.5 -42 15.5s-32.333 -4.83301 -43 -14.5s-16 -21.834 -16 -36.501z" />
    <glyph glyph-name="afii59766;" unicode="&#xe56;" horiz-adv-x="897" 
d="M-98 735l145.004 109c50.667 -30 98.334 -72.333 143.001 -127c30 -34 54.667 -76.333 74 -127c26 15.333 57.167 28.333 93.5 39s73.5 16 111.5 16c108 0 198 -30 270 -90c71.333 -59.333 107 -138 107 -236c0 -95.333 -38.333 -175 -115 -239
c-76.667 -57.333 -172.334 -86 -287.001 -86c-100 0 -181.667 21.667 -245 65c-62.667 46.667 -94.334 102 -95.001 166c0 45.333 17.167 84.333 51.5 117s76.166 49 125.499 49s90.666 -16 123.999 -48s50 -68.667 50 -110c0 -30 -7 -55.667 -21 -77h10
c57.333 0 106.166 15.333 146.499 46s60.5 69.667 60.5 117c0 45.333 -17.667 83.333 -53 114s-81.666 46 -138.999 46c-38 0 -73.833 -6.5 -107.5 -19.5s-64.834 -30.167 -93.501 -51.5l-133 30c-13.333 65.333 -39.333 121.333 -78 168c-15.333 18 -34.5 37.5 -57.5 58.5
s-52.167 44.5 -87.5 70.5zM221.004 233c0 -32.667 19.333 -49.001 58 -49.001c18 0 32.333 4.83301 43 14.5s16 21.167 16 34.5c0 32.667 -19.667 49.334 -59 50.001c-16.667 0 -30.5 -4.83301 -41.5 -14.5s-16.5 -21.5 -16.5 -35.5z" />
    <glyph glyph-name="afii59767;" unicode="&#xe57;" horiz-adv-x="1185" 
d="M82 160l-0.000976562 221c0 74 22.5 134.167 67.5 180.5s113.167 74.166 204.5 83.499l103 -84l104 84c87.333 -8 153.833 -35.5 199.5 -82.5s68.5 -107.5 68.5 -181.5v-227c30 0 50 2.66699 60 8c16.667 9.33301 24.667 29 24 59v404c0 57.333 13.667 106.833 41 148.5
s66.333 77.5 117 107.5l156 -117c-39.333 -12 -69.666 -33.833 -90.999 -65.5s-32 -62.5 -32 -92.5v-405c0 -61.333 -20.5 -110.166 -61.5 -146.499s-94.833 -54.5 -161.5 -54.5h-248v365c0 50.667 -22.667 83.334 -68 98.001l-102 -94l-115 94
c-45.333 -15.333 -67.666 -48 -66.999 -98v-41c44 -4 81.5 -22.167 112.5 -54.5s46.5 -68.833 46.5 -109.5c0 -46.667 -17.333 -85.334 -52 -116.001s-77.334 -46 -128.001 -46c-53.333 0 -96.333 15 -129 45s-49 69 -49 117zM202.999 160c0 -38 19 -57.333 57 -58
c44 0.666992 66 20 66 58s-22 57 -66 57c-38 0 -57 -19 -57 -57z" />
    <glyph glyph-name="afii59768;" unicode="&#xe58;" horiz-adv-x="987" 
d="M51 307c0 101.333 42.998 182.665 128.998 243.998c87.333 62.667 194 94 320 94c39.333 0 76.833 -1 112.5 -3s68.5 -5.66699 98.5 -11c12 24.667 23.167 54.334 33.5 89.001s18.833 77.334 25.5 128.001l188 -27c-12 -83.333 -31 -154.666 -57 -213.999
s-60 -115 -102 -167c-52 13.333 -99.167 23.5 -141.5 30.5s-88.166 10.5 -137.499 10.5c-82 0 -148.167 -16.667 -198.5 -50s-75.5 -74.666 -75.5 -123.999c0 -28.667 6.16699 -52.834 18.5 -72.501s28.5 -35.167 48.5 -46.5l140 123l180 -145l16 8
c-8 5.33301 -16.5 17.333 -25.5 36s-13.5 38 -13.5 58c0 39.333 15.333 73.166 46 101.499s68.667 42.5 114 42.5c46.667 0 86 -13 118 -39s48 -60.333 48 -103c0 -88.667 -58 -161.667 -174 -219l-150 -63l-153 106l-115 -104c-79.333 12 -147.666 46.667 -204.999 104
c-58.667 58.667 -88 129.667 -88 213zM714.998 261.999c0 -13.333 5.5 -24.834 16.5 -34.501s23.833 -14.5 38.5 -14.5c15.333 0 28.333 4.83301 39 14.5s16 21.167 16 34.5c0 12 -5.33301 23.5 -16 34.5s-23.667 16.5 -39 16.5s-28.333 -4.66699 -39 -14
s-16 -21.666 -16 -36.999z" />
    <glyph glyph-name="afii59769;" unicode="&#xe59;" horiz-adv-x="1007" 
d="M47 330c0 94 33.3301 169.666 99.9971 226.999c66.667 58.667 153 88 259 88c80.667 0 150 -21 208 -63c16.667 23.333 38.334 41.666 65.001 54.999s58.334 20 95.001 20c26 0 47.167 -2.33301 63.5 -7s32.166 -11 47.499 -19c8 26 12 60.667 12 104v58
c-2.66699 9.33301 -4.33398 17 -5.00098 23s-1.66699 11 -3 15h190c0 -191.333 -43 -331.666 -129 -420.999l-63 18c-6.66699 18 -17.667 31.667 -33 41s-31 14 -47 14c-36.667 0 -58 -10.667 -64 -32c36.667 -52 67.334 -114.5 92.001 -187.5s44.667 -156.833 60 -251.5
l-186 -12c-23.333 190 -61.666 319.667 -114.999 389c-45.333 60 -105.333 90 -180 90c-49.333 0 -90 -14.667 -122 -44s-48 -65 -48 -107c0 -22 2.33301 -41.167 7 -57.5s11.667 -32.166 21 -47.499c9.33301 35.333 29.5 64.333 60.5 87s67.5 34 109.5 34
c50.667 0 92.667 -16 126 -48s50 -71.333 50 -118c0 -27.333 -6 -51.833 -18 -73.5s-28.667 -40.334 -50 -56.001s-46 -27.667 -74 -36s-57 -12.5 -87 -12.5c-95.333 0 -176.666 31.333 -243.999 94c-65.333 66.667 -98 145.334 -98 236.001zM382.997 173.999
c0 -12 5.83203 -23.167 17.499 -33.5s24.834 -15.5 39.501 -15.5c12 0 23 2.66699 33 8c16.667 9.33301 25 23 25 41c0 13.333 -5.5 25.5 -16.5 36.5s-24.833 16.5 -41.5 16.5c-10.667 0 -20.667 -2.66699 -30 -8c-18 -9.33301 -27 -24.333 -27 -45z" />
    <glyph glyph-name="afii59770;" unicode="&#xe5a;" horiz-adv-x="1056" 
d="M23 610c0 31.333 7.16992 60.335 21.5029 87.002s33.666 50 57.999 70s53.333 35.333 87 46s69.5 16 107.5 16c49.333 0 104.666 -11.333 165.999 -34v-154c-19.333 9.33301 -41.333 16.166 -66 20.499s-47 6.5 -67 6.5c-70.667 0 -106.334 -19.333 -107.001 -58
c0 -18 11 -32 33 -42s47.333 -15 76 -15c48 0 91.667 10.333 131 31c26 13.333 50.667 31.666 74 54.999v180h198v-819h-198v457c-24.667 -18 -56.5 -34.167 -95.5 -48.5s-79.833 -21.5 -122.5 -21.5c-94 0 -166.833 21.833 -218.5 65.5s-77.5 96.167 -77.5 157.5z
M838.003 0.00195312v819h137v-819h-137z" />
    <glyph glyph-name="afii59771;" unicode="&#xe5b;" horiz-adv-x="1515" 
d="M61 416c0 106.667 25.3232 193.335 75.9902 260.002c50.667 70.667 114.334 106 191.001 106c32.667 0 63 -6.83301 91 -20.5s52.167 -32.334 72.5 -56.001s36.333 -52.334 48 -86.001s17.5 -69.5 17.5 -107.5c0 -61.333 -14.333 -111.833 -43 -151.5
s-64.667 -59.5 -108 -59.5c-36.667 0 -68.167 14.333 -94.5 43s-39.5 64.334 -39.5 107.001c0 39.333 13 74 39 104s56.667 45 92 45l15 -2c-15.333 48 -44.666 72 -87.999 72c-40.667 0 -75.167 -25 -103.5 -75s-42.5 -112.333 -42.5 -187c0 -78 16.167 -139.5 48.5 -184.5
s75.5 -67.5 129.5 -67.5c62.667 0 117 33 163 99s77 155 93 267c5.33301 36.667 12.833 61.5 22.5 74.5s24.834 19.5 45.501 19.5c44 0 78 -45 102 -135l5 54c0 40.667 17 61 51 61c32.667 0 64.667 -32.667 96 -98c4 20.667 8.83301 36 14.5 46s15.834 15 30.501 15
c18 0 34.167 -7.16699 48.5 -21.5s29.5 -36.5 45.5 -66.5c6.66699 19.333 13.5 33.666 20.5 42.999s17.167 14 30.5 14c20.667 0 44 -19 70 -57c12 22 29 31 51 27l158 -19c42.667 -4 64 -19 64 -45c0 -24.667 -21.333 -39 -64 -43l-147 -18
c-5.33301 -13.333 -13.166 -26 -23.499 -38s-21.166 -18 -32.499 -18c-10.667 0 -21.167 7.16699 -31.5 21.5s-18.166 27.166 -23.499 38.499c-5.33301 -24.667 -13.833 -44.834 -25.5 -60.501s-25.167 -23.5 -40.5 -23.5c-8 0 -15.333 3.33301 -22 10
s-13.167 14.5 -19.5 23.5s-11.5 18 -15.5 27s-7.33301 15.5 -10 19.5c-5.33301 -30 -14.5 -54.667 -27.5 -74s-28.5 -29 -46.5 -29c-8 0 -15.5 3.83301 -22.5 11.5s-13.167 17.334 -18.5 29.001s-10 24 -14 37s-8 24.833 -12 35.5
c-13.333 -50.667 -27.666 -86.167 -42.999 -106.5s-34.666 -30.5 -57.999 -30.5c-28.667 0 -47 20.333 -55 61l-19 74c-23.333 -83.333 -58.666 -153 -105.999 -209c-76.667 -82 -158.667 -123 -246 -123c-44 0 -83.333 8.83301 -118 26.5s-65 42.334 -91 74.001
s-45.833 70 -59.5 115s-20.5 95.5 -20.5 151.5zM357.99 453.001c0 -38 15 -57.333 45 -58c33.333 0.666992 50 20 50 58s-16.667 57 -50 57c-30 0 -45 -19 -45 -57z" />
    <glyph glyph-name="uni2000" unicode="&#x2000;" horiz-adv-x="799" 
 />
    <glyph glyph-name="uni2001" unicode="&#x2001;" horiz-adv-x="1599" 
 />
    <glyph glyph-name="uni2002" unicode="&#x2002;" horiz-adv-x="799" 
 />
    <glyph glyph-name="uni2003" unicode="&#x2003;" horiz-adv-x="1599" 
 />
    <glyph glyph-name="uni2004" unicode="&#x2004;" horiz-adv-x="533" 
 />
    <glyph glyph-name="uni2005" unicode="&#x2005;" horiz-adv-x="399" 
 />
    <glyph glyph-name="uni2006" unicode="&#x2006;" horiz-adv-x="266" 
 />
    <glyph glyph-name="uni2007" unicode="&#x2007;" horiz-adv-x="266" 
 />
    <glyph glyph-name="uni2008" unicode="&#x2008;" horiz-adv-x="199" 
 />
    <glyph glyph-name="uni2009" unicode="&#x2009;" horiz-adv-x="319" 
 />
    <glyph glyph-name="uni200A" unicode="&#x200a;" horiz-adv-x="88" 
 />
    <glyph glyph-name="uni2010" unicode="&#x2010;" horiz-adv-x="550" 
d="M72 287v164h407v-164h-407z" />
    <glyph glyph-name="uni2011" unicode="&#x2011;" horiz-adv-x="550" 
d="M72 287v164h407v-164h-407z" />
    <glyph glyph-name="figuredash" unicode="&#x2012;" horiz-adv-x="550" 
d="M72 287v164h407v-164h-407z" />
    <glyph glyph-name="endash" unicode="&#x2013;" horiz-adv-x="811" 
d="M66 268v146h682v-146h-682z" />
    <glyph glyph-name="emdash" unicode="&#x2014;" horiz-adv-x="1622" 
d="M66 268v146h1490v-146h-1490z" />
    <glyph glyph-name="quoteleft" unicode="&#x2018;" horiz-adv-x="374" 
d="M92 530l0.000976562 207c0 61.333 17.833 112.833 53.5 154.5s82.167 66.167 139.5 73.5v-88c-32.667 -12 -55.834 -29 -69.501 -51s-20.5 -51 -20.5 -87h90v-209h-193z" />
    <glyph glyph-name="quoteright" unicode="&#x2019;" horiz-adv-x="374" 
d="M92 530v90.999c32.667 10.667 55.5 26.834 68.5 48.501s19.5 51.167 19.5 88.5h-88v207h193v-207c0 -61.333 -17.833 -112.5 -53.5 -153.5s-82.167 -65.833 -139.5 -74.5z" />
    <glyph glyph-name="quotedblleft" unicode="&#x201c;" horiz-adv-x="626" 
d="M74 530v207c0 61.333 17.333 112.833 52 154.5s80.667 66.167 138 73.5v-88c-32.667 -12 -55.5 -29 -68.5 -51s-19.5 -51 -19.5 -87h88v-209h-190zM360 530l0.000976562 207c0 61.333 17.833 112.833 53.5 154.5s82.167 66.167 139.5 73.5v-88
c-32.667 -12 -55.834 -29 -69.501 -51s-20.5 -51 -20.5 -87h90v-209h-193z" />
    <glyph glyph-name="quotedblright" unicode="&#x201d;" horiz-adv-x="626" 
d="M74 530v90.999c32.667 10.667 55.5 26.834 68.5 48.501s19.5 51.167 19.5 88.5h-88v207h190v-207c0 -58.667 -17.333 -109.167 -52 -151.5s-80.667 -67.833 -138 -76.5zM360 529.999v90.999c34 10.667 57.667 26.834 71 48.501s20 51.167 20 88.5h-91v207h193v-207
c0 -61.333 -17.833 -112.5 -53.5 -153.5s-82.167 -65.833 -139.5 -74.5z" />
    <glyph glyph-name="bullet" unicode="&#x2022;" horiz-adv-x="757" 
d="M72 410c0 84.667 30 157 90 217s132.333 90 217 90s157 -30 217 -90s90 -132.333 90 -217s-30 -157.167 -90 -217.5s-132.333 -90.5 -217 -90.5s-157 30.167 -217 90.5s-90 132.833 -90 217.5z" />
    <glyph glyph-name="ellipsis" unicode="&#x2026;" horiz-adv-x="1351" 
d="M119 0v209h213v-209h-213zM569 0v209h211v-209h-211zM1020 0v209h211v-209h-211z" />
    <glyph glyph-name="uni202F" unicode="&#x202f;" horiz-adv-x="319" 
 />
    <glyph glyph-name="uni205F" unicode="&#x205f;" horiz-adv-x="399" 
 />
    <glyph glyph-name="uni25FC" unicode="&#x25fc;" horiz-adv-x="696" 
d="M0 0v696h696v-696h-696z" />
    <glyph glyph-name="f700;" unicode="&#xf700;" horiz-adv-x="833" 
d="M0 674c57.333 58.667 115.331 100.001 173.998 124.001s129 36 211 36c69.333 0 125.333 -11 168 -33l63 90l191 -74l-105 -129c56 -76.667 84 -164 84 -262c0 -132.667 -45 -236.834 -135 -312.501s-223 -113.5 -399 -113.5l-74 340h-90v164h254l68 -332
c24.667 5.33301 47.834 15.833 69.501 31.5s40.667 35.167 57 58.5s29 49 38 77s13.5 57 13.5 87c0 65.333 -20.667 120 -62 164c-45.333 48 -104.666 72 -177.999 72c-52 0 -97 -10.333 -135 -31s-70.667 -48 -98 -82z" />
    <glyph glyph-name="f701;" unicode="&#xf701;" 
d="M-950 922v143h614v-143h-614z" />
    <glyph glyph-name="f702;" unicode="&#xf702;" 
d="M-950 922v143h413v102h201v-245h-614z" />
    <glyph glyph-name="f703;" unicode="&#xf703;" 
d="M-952 922l0.000976562 143.001h379c4 34 18.167 62 42.5 84s55.166 33 92.499 33c38 0 70.333 -12.667 97 -38s40 -56.333 40 -93s-13 -67.334 -39 -92.001s-58.667 -37 -98 -37h-514zM-488.999 1051c0 -34 17 -51.333 51 -52c34 0.666992 51 18 51 52s-17 51 -51 51
s-51 -17 -51 -51z" />
    <glyph glyph-name="f704;" unicode="&#xf704;" 
d="M-950 922v143h243v102h109v-102h61v102h201v-245h-614z" />
    <glyph glyph-name="f705;" unicode="&#xf705;" 
d="M-557 922v245h201v-245h-201z" />
    <glyph glyph-name="f706;" unicode="&#xf706;" 
d="M-588 1044l-0.000976562 123.001h123c40.667 0 70.334 -8.5 89.001 -25.5s28 -41.167 28 -72.5l358 -4v-143h-538v100c0 15.333 -7 22.666 -21 21.999h-39z" />
    <glyph glyph-name="f707;" unicode="&#xf707;" 
d="M-926 922l-0.000976562 110c0 45.333 14 79.166 42 101.499s65.333 33.5 112 33.5h49l80 -53l74 53h49c46.667 0 83.167 -9.5 109.5 -28.5s39.5 -50.5 39.5 -94.5v-12h115v-110h-287v104c0 10.667 -2 18.334 -6 23.001l-2 2c-1.33301 0 -2.66602 0.666992 -3.99902 2
l-88 -72l-100 72c-8 -10.667 -12.333 -19 -13 -25v-65l21 -41h-191z" />
    <glyph glyph-name="f708;" unicode="&#xf708;" 
d="M-721 1008v125h103v86h200v-86h103v-125h-103v-86h-200v86h-103z" />
    <glyph glyph-name="f709;" unicode="&#xf709;" 
d="M-557 1032l0.000976562 64c0 48 14.667 83.833 44 107.5s68.666 35.5 117.999 35.5h162v-133h-66c-38 0 -57 -16.333 -57 -49v-25h-201z" />
    <glyph glyph-name="f70a;" unicode="&#xf70a;" 
d="M-274 922v245h200v-245h-200z" />
    <glyph glyph-name="f70b;" unicode="&#xf70b;" 
d="M-463 1044l-0.000976562 123.001h123c40.667 0 70.334 -8.5 89.001 -25.5s28 -41.167 28 -72.5l243 -4v-143h-423v100c0 15.333 -7 22.666 -21 21.999h-39z" />
    <glyph glyph-name="f70c;" unicode="&#xf70c;" 
d="M-684 922l-0.00195312 110c0 45.333 14 79.166 42 101.499s65.333 33.5 112 33.5h49l80 -53l73 53h49c46.667 0 83.334 -9.5 110.001 -28.5s40 -50.5 40 -94.5v-12h115v-110h-287v104c0 10.667 -2 18.334 -6 23.001l-2 2c-1.33301 0 -2.66602 0.666992 -3.99902 2
l-88 -72l-101 72c-8 -10.667 -12 -19 -12 -25v-65l20 -41h-190z" />
    <glyph glyph-name="f70d;" unicode="&#xf70d;" 
d="M-459 1008v125h103v86h180v-86h102v-125h-102v-86h-180v86h-103z" />
    <glyph glyph-name="f70e;" unicode="&#xf70e;" 
d="M-350 922l0.000976562 63c0 48 14.667 83.833 44 107.5s68.666 35.5 117.999 35.5h161v-133h-65c-38 0 -57.333 -16.333 -58 -49v-24h-200z" />
    <glyph glyph-name="f70f;" unicode="&#xf70f;" horiz-adv-x="1378" 
d="M82 0l-0.00195312 666c83.333 112 201.333 168 354 168c50.667 0 97.834 -6.16699 141.501 -18.5s81.167 -30.5 112.5 -54.5s56 -53.833 74 -89.5s27 -76.5 27 -122.5v-270c0 -38 14.667 -68.333 44 -91s65 -34 107 -34c44 0 81.333 11.167 112 33.5s46 52.833 46 91.5
v540h196v-549c0 -86 -34 -155 -102 -207c-66.667 -46.667 -150.667 -69.667 -252 -69c-101.333 0 -185.333 23 -252 69c-66.667 50.667 -100 119.667 -100 207v265c0 39.333 -14.667 71 -44 95s-68 36 -116 36c-30 0 -58.667 -5.5 -86 -16.5s-47.666 -25.5 -60.999 -43.5
v-442h127v-164h-328z" />
    <glyph glyph-name="f710;" unicode="&#xf710;" 
d="M-643 922v245h201v-102h456v-143h-657z" />
    <glyph glyph-name="f711;" unicode="&#xf711;" 
d="M-584 1047c0 38 13.667 70 41 96s62.333 39 105 39c42 0 76.667 -13 104 -39s41 -58 41 -96s-13.667 -70.167 -41 -96.5s-62 -39.5 -104 -39.5s-76.833 13 -104.5 39s-41.5 58.333 -41.5 97zM-494 1047c0 -13.333 5.83301 -25.3311 17.5 -35.998s24.5 -16 38.5 -16
c15.333 0 28.333 4.83301 39 14.5s16 22.167 16 37.5c0 13.333 -5.83301 25.166 -17.5 35.499s-24.167 15.5 -37.5 15.5c-15.333 0 -28.5 -4.83301 -39.5 -14.5s-16.5 -21.834 -16.5 -36.501z" />
    <glyph glyph-name="f712;" unicode="&#xf712;" 
d="M-868 922v88c0 62.667 20 114.167 60 154.5s97.667 60.5 173 60.5h383v-103h-377c-30 0 -54.167 -7.83301 -72.5 -23.5s-27.5 -34.5 -27.5 -56.5h74l108 60l105 -60h127v-120h-138l-94 55l-98 -55h-223z" />
    <glyph glyph-name="f713;" unicode="&#xf713;" 
d="M-537 1229v205h201v-205h-201z" />
    <glyph glyph-name="f714;" unicode="&#xf714;" 
d="M-625 1339v111h111c69.333 0 104 -29.333 104 -88l228 -4v-129h-389v90c0 13.333 -6.33301 20 -19 20h-35z" />
    <glyph glyph-name="f715;" unicode="&#xf715;" 
d="M-623 1229v98c0 40.667 12.333 71.334 37 92.001s59 31 103 31h45l71 -49l66 49h45c39.333 0 71.333 -8.83301 96 -26.5s37 -45.834 37 -84.501v-12h105v-98h-258v94c0 9.33301 -2.33301 16 -7 20c-2.66699 0 -4.66699 1 -6 3l-78 -64l-90 64c-8 -8 -12 -15.667 -12 -23
v-57l18 -37h-172z" />
    <glyph glyph-name="f716;" unicode="&#xf716;" 
d="M-621 1307v112h93v78h180v-78h92v-112h-92v-78h-180v78h-93z" />
    <glyph glyph-name="f717;" unicode="&#xf717;" 
d="M-561 1147v57c0 44 13 76.5 39 97.5s61.333 31.5 106 31.5h146v-121h-60c-34 0 -51 -14.333 -51 -43v-22h-180z" />
    <glyph glyph-name="f718;" unicode="&#xf718;" 
d="M-356 -360h282v-277h-200v154h-82v123z" />
    <glyph glyph-name="f719;" unicode="&#xf719;" 
d="M-594 -360h237.999v-142c10.667 -6.66699 24.334 -10 41.001 -10c27.333 0 41 11 41 33v119h200v-144c0 -23.333 -6.16699 -43.833 -18.5 -61.5s-29.333 -32.667 -51 -45s-46.5 -21.5 -74.5 -27.5s-58.333 -9 -91 -9c-40.667 0 -81.667 6.5 -123 19.5s-74 32.5 -98 58.5
v86h-64v123z" />
    <glyph glyph-name="f71a;" unicode="&#xf71a;" 
d="M-340 -483c0 32.667 13 61.334 39 86.001s57.333 37 94 37s68 -12.333 94 -37s39 -53.334 39 -86.001s-13 -61.334 -39 -86.001s-57.333 -37 -94 -37s-68 12.333 -94 37s-39 53.334 -39 86.001z" />
    <glyph glyph-name="DEL" unicode="&#xf71b;" 
d="M-473 0h473v1208h-473v-1208z" />
    <glyph glyph-name="f71c;" unicode="&#xf71c;" horiz-adv-x="512" 
 />
    <glyph glyph-name="f71d;" unicode="&#xf71d;" horiz-adv-x="512" 
d="M41 0v-186h35v71c23.333 15.333 48 23 74 23h200c35.333 0 64 -9 86 -27v-67h35v186h-430z" />
    <glyph glyph-name="glyph1" 
 />
    <glyph glyph-name="nonmarkingreturn" horiz-adv-x="1000" 
 />
    <glyph glyph-name=".null" 
 />
  </font>
</defs>
</svg>
